<svg width="300" height="298" viewBox="0 0 300 298" fill="none" xmlns="http://www.w3.org/2000/svg">
<g clip-path="url(#clip0)">
<path d="M176.174 76.5027H167.28C166.827 76.5021 166.392 76.2909 166.071 75.9154C165.75 75.54 165.57 75.031 165.57 74.5V64.086C165.57 63.5551 165.75 63.046 166.071 62.6706C166.392 62.2951 166.827 62.084 167.28 62.0833H176.174C176.628 62.084 177.062 62.2951 177.383 62.6706C177.704 63.046 177.884 63.5551 177.885 64.086V74.5C177.884 75.031 177.704 75.54 177.383 75.9154C177.062 76.2909 176.628 76.5021 176.174 76.5027ZM167.28 62.8844C167.008 62.8848 166.747 63.0115 166.555 63.2367C166.362 63.462 166.254 63.7675 166.254 64.086V74.5C166.254 74.8186 166.362 75.124 166.555 75.3493C166.747 75.5746 167.008 75.7013 167.28 75.7016H176.174C176.446 75.7013 176.707 75.5746 176.9 75.3493C177.092 75.124 177.2 74.8186 177.201 74.5V64.086C177.2 63.7675 177.092 63.462 176.9 63.2367C176.707 63.0115 176.446 62.8848 176.174 62.8844H167.28Z" fill="#E6E6E6"/>
<path d="M72.5223 14.4194H63.628C63.1746 14.4187 62.7398 14.2076 62.4191 13.8321C62.0985 13.4567 61.9181 12.9476 61.9176 12.4167V2.00269C61.9181 1.47173 62.0985 0.96269 62.4191 0.587245C62.7398 0.211799 63.1746 0.000607436 63.628 0H72.5223C72.9757 0.000607436 73.4105 0.211799 73.7311 0.587245C74.0518 0.96269 74.2322 1.47173 74.2327 2.00269V12.4167C74.2322 12.9476 74.0518 13.4567 73.7311 13.8321C73.4105 14.2076 72.9757 14.4187 72.5223 14.4194ZM63.628 0.801075C63.3559 0.801423 63.0951 0.928133 62.9027 1.1534C62.7103 1.37867 62.6021 1.68411 62.6018 2.00269V12.4167C62.6021 12.7352 62.7103 13.0407 62.9027 13.266C63.0951 13.4912 63.3559 13.6179 63.628 13.6183H72.5223C72.7944 13.6179 73.0552 13.4912 73.2476 13.266C73.44 13.0407 73.5482 12.7352 73.5485 12.4167V2.00269C73.5482 1.68411 73.44 1.37867 73.2476 1.1534C73.0552 0.928133 72.7944 0.801423 72.5223 0.801075H63.628Z" fill="#E6E6E6"/>
<path d="M170.701 71.2957H161.807C161.353 71.2951 160.918 71.0839 160.598 70.7085C160.277 70.333 160.097 69.824 160.096 69.293V58.879C160.097 58.3481 160.277 57.839 160.598 57.4636C160.918 57.0881 161.353 56.877 161.807 56.8763H170.701C171.154 56.877 171.589 57.0881 171.91 57.4636C172.23 57.839 172.411 58.3481 172.411 58.879V69.293C172.411 69.824 172.23 70.333 171.91 70.7085C171.589 71.0839 171.154 71.2951 170.701 71.2957ZM161.807 57.6774C161.535 57.6778 161.274 57.8045 161.081 58.0297C160.889 58.255 160.781 58.5605 160.78 58.879V69.293C160.781 69.6116 160.889 69.917 161.081 70.1423C161.274 70.3676 161.535 70.4943 161.807 70.4946H170.701C170.973 70.4943 171.234 70.3676 171.426 70.1423C171.619 69.917 171.727 69.6116 171.727 69.293V58.879C171.727 58.5605 171.619 58.255 171.426 58.0297C171.234 57.8045 170.973 57.6778 170.701 57.6774H161.807Z" fill="#E6E6E6"/>
<path d="M16.0781 158.212H7.18382C6.73034 158.212 6.29559 158.001 5.97493 157.625C5.65428 157.25 5.47391 156.741 5.47339 156.21V145.796C5.47391 145.265 5.65428 144.756 5.97493 144.38C6.29559 144.005 6.73034 143.794 7.18382 143.793H16.0781C16.5315 143.794 16.9663 144.005 17.2869 144.38C17.6076 144.756 17.788 145.265 17.7885 145.796V156.21C17.788 156.741 17.6076 157.25 17.2869 157.625C16.9663 158.001 16.5315 158.212 16.0781 158.212ZM7.18382 144.594C6.91173 144.594 6.65087 144.721 6.45847 144.946C6.26608 145.172 6.15786 145.477 6.15756 145.796V156.21C6.15786 156.528 6.26608 156.834 6.45847 157.059C6.65087 157.284 6.91173 157.411 7.18382 157.411H16.0781C16.3501 157.411 16.611 157.284 16.8034 157.059C16.9958 156.834 17.104 156.528 17.1043 156.21V145.796C17.104 145.477 16.9958 145.172 16.8034 144.946C16.611 144.721 16.3501 144.594 16.0781 144.594H7.18382Z" fill="#E6E6E6"/>
<path d="M10.6047 153.005H1.71043C1.25696 153.005 0.822202 152.794 0.501546 152.418C0.180891 152.043 0.000518791 151.534 0 151.003V140.589C0.000518791 140.058 0.180891 139.549 0.501546 139.173C0.822202 138.798 1.25696 138.587 1.71043 138.586H10.6047C11.0581 138.587 11.4929 138.798 11.8135 139.173C12.1342 139.549 12.3146 140.058 12.3151 140.589V151.003C12.3146 151.534 12.1342 152.043 11.8135 152.418C11.4929 152.794 11.0581 153.005 10.6047 153.005ZM1.71043 139.387C1.43834 139.387 1.17748 139.514 0.985084 139.739C0.792688 139.965 0.684469 140.27 0.684172 140.589V151.003C0.684469 151.321 0.792688 151.627 0.985084 151.852C1.17748 152.077 1.43834 152.204 1.71043 152.204H10.6047C10.8768 152.204 11.1376 152.077 11.33 151.852C11.5224 151.627 11.6306 151.321 11.6309 151.003V140.589C11.6306 140.27 11.5224 139.965 11.33 139.739C11.1376 139.514 10.8768 139.387 10.6047 139.387H1.71043Z" fill="#E6E6E6"/>
<path d="M31.6188 34.4617H113.93C117.902 34.4617 121.756 36.0439 124.858 38.9484C127.96 41.8528 130.126 45.9066 130.999 50.4434L172.59 266.44C173.043 268.796 173.051 271.24 172.613 273.6C172.175 275.96 171.301 278.179 170.053 280.102C168.805 282.024 167.212 283.604 165.388 284.73C163.563 285.856 161.55 286.501 159.49 286.62L74.8733 291.502C70.3423 291.763 65.8849 290.085 62.3328 286.781C58.7808 283.478 56.3767 278.773 55.5692 273.547L31.9767 120.834L30.2215 121.422L25.7073 92.4769L27.514 91.948L20.9285 49.3206C20.6464 47.4948 20.7119 45.6186 21.1201 43.8257C21.5283 42.0329 22.2693 40.3676 23.2903 38.9486C24.3112 37.5295 25.587 36.3916 27.0265 35.6161C28.4661 34.8405 30.0341 34.4463 31.6188 34.4617V34.4617Z" fill="#3F3D56"/>
<path d="M103.094 39.118H112.702C115.461 39.118 118.138 40.2229 120.287 42.2493C122.436 44.2758 123.928 47.1018 124.516 50.2583L164.437 264.493C164.667 265.726 164.667 267.003 164.437 268.237C164.206 269.47 163.751 270.631 163.103 271.639C162.455 272.648 161.628 273.481 160.679 274.081C159.731 274.681 158.683 275.035 157.607 275.117L73.264 281.59C70.8845 281.772 68.5309 280.923 66.6524 279.203C64.7738 277.483 63.5018 275.014 63.0791 272.266L29.0144 50.8338C28.7939 49.4006 28.8447 47.9282 29.1633 46.5205C29.4819 45.1128 30.0605 43.8042 30.8582 42.6869C31.6559 41.5696 32.6533 40.6709 33.7801 40.0543C34.9068 39.4376 36.1354 39.118 37.3792 39.118H46.494C47.3762 39.118 48.2338 39.4585 48.934 40.0868C49.6342 40.7152 50.138 41.5962 50.3674 42.5936C50.5698 43.4742 51.0146 44.252 51.6327 44.8067C52.2509 45.3614 53.008 45.662 53.7868 45.662H97.0584C98.5834 45.662 100.052 44.988 101.171 43.7747C102.29 42.5615 102.977 40.8984 103.094 39.118L103.094 39.118Z" fill="white"/>
<path d="M35.577 75.5438H127.077L136.825 126.97L44.1291 128.973L35.577 75.5438Z" fill="#FA9D98"/>
<path d="M122.467 172.934H144.008L144.692 177.762H123.151L122.467 172.934Z" fill="#FA9D98"/>
<path d="M139.994 148.302L48.6345 150.567L48.6436 151.07L140.003 148.805L139.994 148.302Z" fill="#2F2E41"/>
<path d="M142.788 163.151L49.7089 165.668L49.7188 166.172L142.798 163.655L142.788 163.151Z" fill="#2F2E41"/>
<path d="M131.361 224.603H152.903L153.587 229.432H132.045L131.361 224.603Z" fill="#FA9D98"/>
<path d="M148.888 199.971L57.5287 202.236L57.5378 202.74L148.897 200.474L148.888 199.971Z" fill="#2F2E41"/>
<path d="M151.682 214.821L58.6031 217.338L58.613 217.841L151.692 215.324L151.682 214.821Z" fill="#2F2E41"/>
<path d="M210.574 292.876L206.499 292.876L204.56 274.468L210.575 274.468L210.574 292.876Z" fill="#A0616A"/>
<path d="M211.614 297.502L198.471 297.501V297.307C198.471 295.718 199.01 294.195 199.97 293.072C200.929 291.949 202.23 291.317 203.587 291.317H203.587L211.614 291.318L211.614 297.502Z" fill="#2F2E41"/>
<path d="M261.209 289.751L257.241 290.845L251.75 273.448L257.605 271.833L261.209 289.751Z" fill="#A0616A"/>
<path d="M263.126 293.975L250.334 297.502L250.296 297.313C249.985 295.766 250.211 294.139 250.925 292.788C251.639 291.437 252.782 290.474 254.102 290.11L254.102 290.11L261.916 287.955L263.126 293.975Z" fill="#2F2E41"/>
<path d="M209.742 215.235C209.749 214.276 209.992 191.638 215.292 183.078L215.37 182.951L233.84 185.935L233.427 190.686C234.24 191.612 240.63 199.43 242.475 217.944L262.079 279.593L252.965 280.563L225.987 213.266L211.71 286.418H202.675L209.742 215.235Z" fill="#2F2E41"/>
<path d="M213.128 183.913L214.934 172.815C214.58 172.282 213.014 169.724 213.363 166.725C213.59 164.768 214.588 163.053 216.328 161.625L221.008 148.839L221.071 148.796C221.386 148.579 228.837 143.534 232.899 148.293C233.001 148.386 243.002 157.681 238.986 170.221L234.028 187.639L213.128 183.913Z" fill="#CCCCCC"/>
<path d="M206.847 198.928C207.333 198.863 207.802 198.673 208.22 198.373C208.637 198.073 208.994 197.669 209.264 197.19C209.533 196.711 209.71 196.169 209.782 195.602C209.853 195.034 209.818 194.455 209.677 193.905L219.342 185.753L213.556 183.176L205.266 191.313C204.493 191.65 203.852 192.308 203.466 193.161C203.079 194.014 202.973 195.004 203.168 195.942C203.362 196.881 203.845 197.703 204.523 198.254C205.201 198.804 206.028 199.044 206.847 198.928Z" fill="#A0616A"/>
<path d="M208.623 185.739L223.377 172.129L218.991 154.582C218.784 153.751 218.726 152.879 218.819 152.021C218.913 151.162 219.156 150.335 219.534 149.592C219.884 148.891 220.356 148.283 220.918 147.808C221.48 147.333 222.121 147 222.8 146.832C225.326 146.206 227.619 147.862 229.613 151.755L229.628 151.79C229.958 152.734 237.645 174.981 231.776 179.739C226.035 184.392 212.722 191.167 212.588 191.235L212.432 191.314L208.623 185.739Z" fill="#CCCCCC"/>
<path d="M228.232 143.666C233.168 143.666 237.17 138.981 237.17 133.201C237.17 127.421 233.168 122.736 228.232 122.736C223.296 122.736 219.294 127.421 219.294 133.201C219.294 138.981 223.296 143.666 228.232 143.666Z" fill="#A0616A"/>
<path d="M242.244 129.465C246.611 129.465 250.151 125.32 250.151 120.207C250.151 115.094 246.611 110.949 242.244 110.949C237.877 110.949 234.337 115.094 234.337 120.207C234.337 125.32 237.877 129.465 242.244 129.465Z" fill="#2F2E41"/>
<path d="M249.065 127.873C248.041 128.74 246.856 129.306 245.607 129.526C244.358 129.745 243.083 129.611 241.887 129.135C240.691 128.659 239.611 127.855 238.735 126.79C237.859 125.725 237.214 124.429 236.854 123.012C236.99 124.282 237.35 125.505 237.911 126.604C238.471 127.703 239.22 128.654 240.11 129.396C241 130.139 242.012 130.658 243.082 130.92C244.152 131.182 245.257 131.181 246.327 130.918C247.396 130.654 248.408 130.134 249.297 129.39C250.186 128.646 250.934 127.694 251.494 126.594C252.053 125.495 252.412 124.271 252.547 123.001C252.682 121.731 252.59 120.442 252.279 119.215C252.456 120.864 252.251 122.537 251.685 124.06C251.12 125.584 250.215 126.901 249.065 127.873Z" fill="#2F2E41"/>
<path d="M217.86 127.884C219.24 124.99 219.768 123.781 221.548 122.022C223.122 120.466 225.058 120.009 226.619 121.483C228.467 120.549 230.522 120.337 232.48 120.879C234.439 121.421 236.195 122.689 237.49 124.493C238.784 126.297 239.546 128.542 239.664 130.894C239.782 133.246 239.248 135.58 238.143 137.549C237.038 139.518 235.419 141.017 233.528 141.823C231.638 142.629 229.575 142.7 227.647 142.024C225.72 141.349 224.029 139.963 222.828 138.073C221.626 136.183 220.977 133.89 220.977 131.534C220.979 131.12 221 130.707 221.041 130.296C219.683 130.072 219.217 128.107 217.86 127.884Z" fill="#2F2E41"/>
<path d="M299.658 298H169.323C169.232 298 169.145 297.958 169.081 297.883C169.017 297.808 168.981 297.706 168.981 297.599C168.981 297.493 169.017 297.391 169.081 297.316C169.145 297.241 169.232 297.199 169.323 297.199H299.658C299.749 297.199 299.836 297.241 299.9 297.316C299.964 297.391 300 297.493 300 297.599C300 297.706 299.964 297.808 299.9 297.883C299.836 297.958 299.749 298 299.658 298Z" fill="#3F3D56"/>
</g>
<defs>
<clipPath id="clip0">
<rect width="300" height="298" fill="white"/>
</clipPath>
</defs>
</svg>
