<svg width="40" height="43" viewBox="0 0 40 43" fill="none" xmlns="http://www.w3.org/2000/svg">
<path fill-rule="evenodd" clip-rule="evenodd" d="M33 21.0252C32.9996 18.5974 32.3147 16.2205 31.0265 14.1761C29.7383 12.1316 27.9006 10.505 25.7312 9.48902C23.5617 8.47301 21.1512 8.11006 18.785 8.44314C16.4189 8.77622 14.1963 9.79138 12.3801 11.3684C10.564 12.9455 9.23056 15.0184 8.53757 17.3418C7.84459 19.6652 7.82112 22.1418 8.46994 24.4783C9.11876 26.8148 10.4127 28.9135 12.1986 30.5258C13.9845 32.1381 16.1875 33.1966 18.5469 33.576V24.6987H15.3722V21.0252H18.5469V18.2257C18.5469 15.0422 20.4135 13.2823 23.2684 13.2823C24.206 13.2956 25.1413 13.3786 26.067 13.5307V16.6575H24.4899C24.2213 16.6213 23.9481 16.6471 23.6905 16.7327C23.4329 16.8184 23.1976 16.9619 23.002 17.1525C22.8064 17.3431 22.6554 17.576 22.5603 17.8339C22.4652 18.0918 22.4284 18.3682 22.4526 18.6425V21.0258H25.9191L25.3655 24.6993H22.4526V33.5771C25.3931 33.1038 28.0709 31.5796 30.0044 29.2786C31.9379 26.9777 33.0001 24.0511 33 21.0252H33Z" fill="#EFEEEE"/>
<path d="M20.0001 42.0902C16.0444 42.0902 12.1776 40.856 8.88864 38.5435C5.59965 36.2311 3.0362 32.9443 1.52244 29.0988C0.00867136 25.2533 -0.3874 21.0218 0.384296 16.9395C1.15599 12.8571 3.06081 9.10723 5.85786 6.16401C8.6549 3.22079 12.2186 1.21643 16.0982 0.404391C19.9778 -0.407645 23.9991 0.00911307 27.6537 1.60196C31.3082 3.19482 34.4317 5.89222 36.6294 9.35307C38.827 12.8139 40 16.8828 40 21.0451C39.994 26.6247 37.885 31.9739 34.1356 35.9193C30.3861 39.8646 25.3026 42.0839 20.0001 42.0902ZM20.0001 1.27547C16.2842 1.27546 12.6517 2.43492 9.56206 4.60723C6.4724 6.77953 4.06432 9.86711 2.6423 13.4795C1.22028 17.092 0.848187 21.067 1.57311 24.9019C2.29804 28.7369 4.08741 32.2595 6.71494 35.0243C9.34247 37.7892 12.6901 39.672 16.3346 40.4349C19.9791 41.1977 23.7568 40.8062 27.1898 39.3099C30.6228 37.8136 33.5571 35.2796 35.6216 32.0285C37.686 28.7774 38.7879 24.9552 38.7879 21.0451C38.7822 15.8037 36.801 10.7787 33.2788 7.07246C29.7567 3.36622 24.9812 1.28143 20.0001 1.27547Z" fill="#EFEEEE"/>
</svg>
