<svg width="427" height="284" viewBox="0 0 427 284" fill="none" xmlns="http://www.w3.org/2000/svg">
<g clip-path="url(#clip0)">
<path d="M211.956 279.857H207.409L205.246 264.851L211.956 264.851L211.956 279.857Z" fill="#FFB8B8"/>
<path d="M213.115 283.629L198.456 283.628V283.47C198.456 282.828 198.603 282.193 198.89 281.601C199.177 281.009 199.597 280.47 200.127 280.017C200.657 279.564 201.286 279.204 201.978 278.959C202.67 278.713 203.412 278.587 204.162 278.587H204.162L213.115 278.587L213.115 283.629Z" fill="#2F2E41"/>
<path d="M262.742 276.217L258.457 277.516L250.564 263.989L256.889 262.072L262.742 276.217Z" fill="#FFB8B8"/>
<path d="M265.307 279.441L251.488 283.629L251.427 283.479C251.176 282.875 251.068 282.234 251.107 281.594C251.146 280.954 251.332 280.326 251.655 279.747C251.977 279.169 252.43 278.65 252.987 278.221C253.544 277.792 254.194 277.461 254.9 277.247L254.9 277.246L263.34 274.689L265.307 279.441Z" fill="#2F2E41"/>
<path d="M211.829 274.819C211.727 274.819 211.625 274.811 211.525 274.795L205.965 273.93C205.587 273.871 205.244 273.701 204.994 273.45C204.745 273.2 204.603 272.883 204.594 272.554C203.786 240.53 207.759 219.009 216.403 203.584C216.556 203.311 216.808 203.087 217.121 202.945C217.434 202.804 217.792 202.751 218.142 202.796L238.134 205.266C238.499 205.312 238.836 205.459 239.093 205.686C239.35 205.912 239.512 206.205 239.554 206.519L241.316 219.817C241.326 219.888 241.344 219.959 241.369 220.028L260.537 269.175C260.668 269.533 260.63 269.92 260.431 270.254C260.232 270.588 259.889 270.842 259.474 270.962L254.294 272.439C253.913 272.547 253.5 272.533 253.129 272.402C252.758 272.27 252.455 272.03 252.274 271.723L226.346 229.885C226.295 229.797 226.213 229.725 226.111 229.679C226.01 229.632 225.894 229.614 225.78 229.626C225.666 229.638 225.559 229.68 225.474 229.747C225.389 229.813 225.33 229.9 225.305 229.996L213.453 273.696C213.373 274.014 213.168 274.299 212.873 274.503C212.577 274.707 212.209 274.819 211.829 274.819Z" fill="#47678F"/>
<path d="M196.029 177.647C196.074 177.818 196.104 177.992 196.117 178.167L212.047 186.032L215.919 184.124L220.047 188.749L213.576 192.696C213.053 193.015 212.424 193.18 211.782 193.166C211.14 193.153 210.521 192.962 210.017 192.622L193.59 181.532C192.849 181.766 192.042 181.803 191.276 181.635C190.51 181.468 189.822 181.105 189.303 180.595C188.784 180.084 188.459 179.451 188.371 178.779C188.282 178.106 188.436 177.427 188.81 176.831C189.184 176.235 189.761 175.751 190.465 175.443C191.168 175.134 191.965 175.017 192.748 175.105C193.532 175.194 194.266 175.484 194.852 175.938C195.438 176.392 195.848 176.988 196.029 177.647Z" fill="#FFB8B8"/>
<path d="M212.266 185.246C212.314 185.045 212.412 184.855 212.554 184.689C212.695 184.523 212.877 184.386 213.086 184.286L220.396 180.788C221.368 180.146 222.596 179.86 223.814 179.993C225.031 180.126 226.137 180.666 226.889 181.495C227.641 182.325 227.979 183.376 227.827 184.417C227.675 185.459 227.047 186.407 226.08 187.053L220.251 192.233C220.085 192.381 219.883 192.496 219.66 192.571C219.437 192.646 219.198 192.679 218.958 192.668C218.719 192.657 218.485 192.602 218.273 192.506C218.061 192.411 217.875 192.277 217.728 192.115L212.58 186.404C212.433 186.242 212.329 186.054 212.275 185.854C212.221 185.654 212.218 185.447 212.266 185.246Z" fill="#47678F"/>
<path d="M229.289 176.863C234.319 176.863 238.397 173.373 238.397 169.069C238.397 164.764 234.319 161.274 229.289 161.274C224.259 161.274 220.181 164.764 220.181 169.069C220.181 173.373 224.259 176.863 229.289 176.863Z" fill="#FFB8B8"/>
<path d="M238.158 206.929C238.068 206.929 237.977 206.922 237.888 206.91L218.177 204.144C217.955 204.113 217.742 204.044 217.551 203.94C217.361 203.836 217.197 203.701 217.07 203.541C216.942 203.382 216.854 203.202 216.81 203.012C216.767 202.823 216.768 202.628 216.815 202.439L217.774 198.57C217.283 197.944 213.286 192.494 218.154 187.376C218.061 185.558 218.801 183.78 220.216 182.421C221.631 181.063 223.61 180.231 225.732 180.102L235.918 179.44C237.228 179.354 238.543 179.54 239.753 179.98C240.962 180.421 242.03 181.104 242.866 181.971C243.703 182.838 244.284 183.865 244.56 184.964C244.837 186.063 244.801 187.204 244.455 188.289L239.785 205.818C239.7 206.133 239.494 206.415 239.198 206.616C238.903 206.818 238.536 206.928 238.158 206.929Z" fill="#FABEBD"/>
<path d="M256.565 221.587C256.899 221.179 257.125 220.713 257.226 220.222C257.327 219.731 257.301 219.228 257.15 218.746C256.999 218.265 256.727 217.818 256.352 217.436C255.977 217.055 255.509 216.748 254.981 216.538L243.758 187.01L237.255 189.651L249.534 218.402C249.181 219.185 249.175 220.051 249.518 220.837C249.861 221.623 250.53 222.274 251.396 222.667C252.263 223.06 253.268 223.166 254.22 222.967C255.173 222.768 256.007 222.277 256.565 221.587Z" fill="#FFB8B8"/>
<path d="M246.241 191.926L237.605 194.159C237.359 194.222 237.1 194.24 236.846 194.21C236.592 194.18 236.348 194.104 236.131 193.986C235.914 193.868 235.73 193.712 235.59 193.528C235.45 193.344 235.359 193.136 235.321 192.918L234.01 185.304C233.638 184.226 233.781 183.066 234.406 182.079C235.032 181.091 236.089 180.356 237.347 180.034C238.605 179.712 239.96 179.83 241.117 180.362C242.273 180.894 243.136 181.797 243.516 182.872L247.34 189.811C247.449 190.01 247.508 190.227 247.51 190.446C247.513 190.666 247.461 190.883 247.356 191.084C247.252 191.285 247.098 191.464 246.906 191.609C246.713 191.755 246.486 191.863 246.241 191.926Z" fill="#47678F"/>
<path d="M220.436 169.37C222.458 170.029 224.659 170.177 226.776 169.797C228.894 169.416 230.839 168.523 232.381 167.223C231.425 169.383 231.692 178.544 231.692 178.544C231.692 178.544 240.165 175.102 241.314 174.5C248.103 170.944 238.74 155.477 230.951 157.917C229.631 158.33 228.529 158.816 227.996 159.928C226.833 158.7 224.631 158.434 222.938 159.064C221.244 159.695 220.04 161.062 219.393 162.542C218.882 163.736 218.683 165.012 218.811 166.28C218.939 167.547 219.39 168.775 220.132 169.877L220.436 169.37Z" fill="black"/>
<path d="M340.776 186.027C388.396 186.027 427 144.505 427 93.2865C427 42.0676 388.396 0.546387 340.776 0.546387C293.156 0.546387 254.552 42.0676 254.552 93.2865C254.552 144.505 293.156 186.027 340.776 186.027Z" fill="#F2F2F2"/>
<path d="M404.915 31.3433C423.635 78.4428 403.312 132.947 359.522 153.082C325.452 168.748 285.887 159.253 261.24 129.497C279.958 176.598 330.633 198.46 374.424 178.327C418.216 158.194 438.542 103.69 419.823 56.5889C416.299 47.6035 411.278 39.1006 404.915 31.3433Z" fill="#CBCBCB"/>
<path d="M341.013 74.3347H341.25L345.514 283.536H336.512L341.013 74.3347Z" fill="#CCCCCC"/>
<path d="M354.726 211.673L340.473 218.095L342.459 221.323L356.713 214.902L354.726 211.673Z" fill="#CCCCCC"/>
<path d="M66.5837 207.652C103.357 207.652 133.167 175.72 133.167 136.33C133.167 96.9393 103.357 65.0071 66.5837 65.0071C29.8105 65.0071 0 96.9393 0 136.33C0 175.72 29.8105 207.652 66.5837 207.652Z" fill="#F2F2F2"/>
<path d="M116.113 88.6917C130.569 124.914 114.875 166.831 81.0594 182.316C54.7505 194.364 24.1976 187.062 5.16467 164.177C19.6193 200.401 58.7508 217.214 92.5674 201.73C126.384 186.247 142.08 144.33 127.625 108.107C124.902 101.194 121.025 94.6542 116.113 88.6917Z" fill="#CBCBCB"/>
<path d="M66.7666 121.988H66.9494L70.2422 283.536H63.2915L66.7666 121.988Z" fill="#CCCCCC"/>
<path d="M77.3563 230.362L66.3499 235.321L67.8837 237.815L78.8902 232.856L77.3563 230.362Z" fill="#CCCCCC"/>
<path d="M389.863 283.757H10.8112C10.6823 283.757 10.5587 283.713 10.4675 283.635C10.3764 283.557 10.3252 283.452 10.3252 283.341C10.3252 283.231 10.3764 283.125 10.4675 283.047C10.5587 282.969 10.6823 282.926 10.8112 282.926H389.863C389.992 282.926 390.115 282.969 390.207 283.047C390.298 283.125 390.349 283.231 390.349 283.341C390.349 283.452 390.298 283.557 390.207 283.635C390.115 283.713 389.992 283.757 389.863 283.757Z" fill="#CCCCCC"/>
</g>
<defs>
<clipPath id="clip0">
<rect width="427" height="283.211" fill="white" transform="translate(0 0.546387)"/>
</clipPath>
</defs>
</svg>
