<svg width="1440" height="663" viewBox="0 0 1440 663" fill="none" xmlns="http://www.w3.org/2000/svg">
<path d="M794.5 272.864C421.3 413.664 72.6667 297.531 -55 221.864L-155 679.364L1667.5 820.864L1797.5 405.364C1783.5 352.697 1717 230.264 1563 161.864C1370.5 76.364 1261 96.864 794.5 272.864Z" fill="#A4C5D6"/>
<path d="M557.5 154.585C283.5 -25.8149 -29.5 43.7517 -73.5 114.085C-73.5 299.085 -71.4 678.385 -63 715.585C-54.6 752.785 1072.83 731.085 1635.5 715.585V128.085C1581 212.085 1441 379.785 1215 410.585C932.5 449.085 900 380.085 557.5 154.585Z" fill="#73A0BF"/>
<path d="M539.5 340.085C265.5 159.685 -47.5 229.252 -91.5 299.585C-91.5 484.585 -89.4 863.885 -81 901.085C-72.6 938.285 1054.83 916.585 1617.5 901.085L1744 0C1689.5 84 1423 565.285 1197 596.085C914.5 634.585 882 565.585 539.5 340.085Z" fill="#6485AE"/>
</svg>
