<svg width="317" height="194" viewBox="0 0 317 194" fill="none" xmlns="http://www.w3.org/2000/svg">
<g clip-path="url(#clip0)">
<path d="M162.88 164.76C162.058 164.76 161.228 164.746 160.413 164.719L160.432 164.093C161.602 164.132 162.796 164.142 163.972 164.125L163.98 164.752C163.614 164.757 163.247 164.76 162.88 164.76ZM167.545 164.614L167.51 163.989C168.682 163.916 169.869 163.813 171.038 163.684L171.1 164.307C169.922 164.437 168.726 164.541 167.545 164.614ZM156.852 164.517C155.67 164.421 154.476 164.296 153.302 164.143L153.374 163.522C154.539 163.673 155.724 163.797 156.897 163.892L156.852 164.517ZM174.638 163.828L174.549 163.209C175.713 163.022 176.887 162.805 178.036 162.564L178.151 163.178C176.993 163.421 175.811 163.64 174.638 163.828ZM149.773 163.599C148.605 163.39 147.427 163.149 146.27 162.884L146.396 162.271C147.544 162.535 148.713 162.774 149.872 162.981L149.773 163.599ZM181.633 162.358L181.491 161.75C182.634 161.451 183.783 161.12 184.907 160.768L185.075 161.369C183.943 161.724 182.785 162.057 181.633 162.358ZM142.803 161.999C141.657 161.677 140.505 161.322 139.377 160.945L139.556 160.348C140.675 160.722 141.819 161.074 142.955 161.393L142.803 161.999ZM188.471 160.213L188.277 159.621C189.386 159.214 190.501 158.773 191.593 158.311L191.813 158.893C190.713 159.358 189.589 159.802 188.471 160.213ZM135.993 159.722C134.881 159.29 133.761 158.824 132.667 158.336L132.897 157.758C133.983 158.242 135.094 158.705 136.197 159.134L135.993 159.722ZM195.086 157.414L194.84 156.844C195.906 156.332 196.976 155.786 198.023 155.22L198.292 155.778C197.238 156.348 196.159 156.899 195.086 157.414ZM129.406 156.79C128.336 156.251 127.263 155.678 126.216 155.087L126.496 154.534C127.535 155.121 128.599 155.69 129.66 156.224L129.406 156.79ZM201.425 153.988L201.132 153.444C202.153 152.828 203.173 152.18 204.162 151.518L204.479 152.048C203.482 152.714 202.455 153.367 201.425 153.988ZM123.105 153.231C122.088 152.591 121.07 151.917 120.079 151.226L120.405 150.703C121.389 151.388 122.399 152.058 123.408 152.692L123.105 153.231ZM207.446 149.961L207.107 149.447C208.068 148.737 209.028 147.993 209.96 147.236L210.321 147.733C209.382 148.495 208.415 149.245 207.446 149.961ZM117.143 149.079C116.187 148.344 115.231 147.575 114.304 146.791L114.673 146.302C115.594 147.079 116.542 147.843 117.491 148.571L117.143 149.079ZM213.097 145.368L212.715 144.889C213.612 144.089 214.504 143.256 215.367 142.411L215.77 142.871C214.9 143.722 214.001 144.562 213.097 145.368ZM111.566 144.37C110.676 143.546 109.791 142.688 108.936 141.821L109.347 141.369C110.195 142.229 111.073 143.081 111.956 143.899L111.566 144.37ZM218.333 140.248L217.911 139.808C218.737 138.922 219.555 138.006 220.34 137.084L220.781 137.503C219.989 138.432 219.165 139.356 218.333 140.248ZM106.42 139.148C105.603 138.239 104.796 137.3 104.021 136.357L104.469 135.946C105.237 136.883 106.038 137.814 106.849 138.716L106.42 139.148ZM223.108 134.644L222.65 134.246C223.397 133.285 224.132 132.294 224.836 131.299L225.31 131.674C224.601 132.676 223.86 133.676 223.108 134.644ZM101.746 133.454C101.012 132.474 100.289 131.462 99.5982 130.446L100.079 130.08C100.765 131.088 101.482 132.092 102.21 133.066L101.746 133.454ZM227.382 128.6L226.892 128.248C227.553 127.22 228.2 126.161 228.816 125.101L229.321 125.429C228.7 126.497 228.048 127.564 227.382 128.6ZM97.5832 127.338C96.9376 126.292 96.3058 125.215 95.705 124.137L96.2154 123.819C96.8116 124.888 97.4387 125.957 98.0793 126.995L97.5832 127.338ZM231.12 122.166L230.601 121.864C231.17 120.775 231.722 119.657 232.244 118.541L232.775 118.819C232.25 119.943 231.693 121.07 231.12 122.166ZM93.9677 120.849C93.4151 119.745 92.8793 118.612 92.3752 117.482L92.911 117.215C93.4113 118.336 93.9429 119.46 94.4913 120.556L93.9677 120.849ZM234.284 115.394L233.741 115.142C234.213 114.002 234.666 112.835 235.088 111.672L235.642 111.897C235.216 113.069 234.759 114.245 234.284 115.394ZM90.9309 114.042C90.4767 112.89 90.0417 111.71 89.6381 110.537L90.195 110.323C90.5954 111.487 91.0271 112.657 91.4776 113.801L90.9309 114.042ZM236.846 108.336L236.283 108.139C236.653 106.961 237.002 105.757 237.32 104.561L237.891 104.73C237.57 105.936 237.218 107.15 236.846 108.336ZM88.4968 106.964C88.1443 105.77 87.8131 104.55 87.5124 103.338L88.0855 103.179C88.3839 104.382 88.7127 105.592 89.0624 106.777L88.4968 106.964ZM238.777 101.076L238.2 100.935C238.465 99.7272 238.707 98.4941 238.921 97.2703L239.503 97.3834C239.289 98.6171 239.044 99.8593 238.777 101.076ZM86.6873 99.6687C86.4402 98.4452 86.2166 97.1987 86.0227 95.9632L86.6071 95.8604C86.7997 97.0867 87.0216 98.3237 87.2667 99.5378L86.6873 99.6687ZM240.068 93.6598L239.481 93.5748C239.64 92.3479 239.775 91.0968 239.881 89.8561L240.471 89.9124C240.364 91.1629 240.228 92.4234 240.068 93.6598V93.6598ZM85.5197 92.2295C85.3799 90.9894 85.2652 89.7264 85.1786 88.4756L85.7696 88.4297C85.8554 89.6713 85.9694 90.9246 86.1081 92.1555L85.5197 92.2295ZM240.712 86.1499L240.12 86.1218C240.173 84.8805 240.2 83.6214 240.2 82.3798H240.792C240.792 83.6309 240.765 84.8995 240.712 86.1499L240.712 86.1499ZM84.999 84.7086C84.9788 83.9405 84.9685 83.1568 84.9684 82.3798C84.9684 81.8977 84.9723 81.4166 84.9801 80.9363L85.5726 80.9474C85.5648 81.4239 85.5609 81.9014 85.5609 82.3798C85.561 83.151 85.5713 83.9289 85.5912 84.6914L84.999 84.7086ZM240.195 81.5059C240.183 80.2638 240.144 79.0049 240.079 77.7639L240.67 77.7291C240.736 78.9796 240.776 80.2479 240.788 81.4992L240.195 81.5059ZM85.7132 77.2074L85.1219 77.1682C85.1958 75.9165 85.2979 74.6523 85.4251 73.4105L86.0141 73.478C85.8878 74.7104 85.7867 75.965 85.7132 77.2074ZM239.802 74.0329C239.683 72.7978 239.536 71.5483 239.364 70.3186L239.95 70.2271C240.123 71.4661 240.272 72.7252 240.391 73.9695L239.802 74.0329ZM86.4754 69.7672L85.8898 69.6715C86.0713 68.4322 86.2822 67.1831 86.5167 65.9584L87.0974 66.0826C86.8648 67.2979 86.6554 68.5376 86.4754 69.7672ZM238.766 66.63C238.54 65.408 238.286 64.1779 238.008 62.9739L238.584 62.8258C238.863 64.039 239.12 65.2786 239.348 66.5098L238.766 66.63ZM87.8788 62.4323L87.304 62.28C87.5918 61.0667 87.9104 59.8432 88.2512 58.6435L88.8185 58.8237C88.4805 60.0142 88.1643 61.2283 87.8788 62.4323ZM237.092 59.3584C236.762 58.1656 236.4 56.9657 236.019 55.7917L236.579 55.588C236.964 56.771 237.328 57.9804 237.661 59.1822L237.092 59.3584ZM89.9183 55.255L89.3594 55.0473C89.7531 53.8631 90.1783 52.6732 90.6229 51.5106L91.1723 51.7456C90.731 52.8991 90.309 54.08 89.9183 55.255ZM234.791 52.281C234.359 51.1281 233.896 49.9711 233.415 48.8419L233.956 48.5846C234.44 49.7226 234.907 50.8885 235.342 52.0501L234.791 52.281ZM92.5776 48.3022L92.0392 48.0406C92.534 46.9012 93.0607 45.7585 93.6046 44.6445L94.1311 44.9317C93.5913 46.0374 93.0686 47.1713 92.5776 48.3022ZM231.891 45.4719C231.361 44.366 230.799 43.2577 230.222 42.1784L230.737 41.8698C231.319 42.9575 231.885 44.0742 232.42 45.1887L231.891 45.4719ZM95.8294 41.6413L95.3159 41.3286C95.907 40.2435 96.5303 39.1573 97.1686 38.1004L97.6679 38.4375C97.0345 39.4864 96.4159 40.5644 95.8294 41.6413ZM228.411 38.9678C227.785 37.914 227.129 36.8642 226.462 35.8474L226.949 35.4904C227.621 36.515 228.282 37.5728 228.912 38.6347L228.411 38.9678ZM99.643 35.3269L99.1587 34.966C99.8417 33.9417 100.556 32.9208 101.282 31.9316L101.75 32.3155C101.03 33.2974 100.321 34.3105 99.643 35.3269ZM224.38 32.8235C223.666 31.8348 222.923 30.8518 222.17 29.902L222.624 29.4996C223.383 30.4567 224.132 31.447 224.851 32.4433L224.38 32.8235ZM103.984 29.4096L103.533 29.0034C104.299 28.0515 105.098 27.104 105.907 26.1872L106.34 26.6146C105.538 27.5244 104.745 28.4649 103.984 29.4096ZM219.836 27.0892C219.04 26.1732 218.214 25.2653 217.382 24.3911L217.8 23.9466C218.638 24.8277 219.47 25.7423 220.272 26.6652L219.836 27.0892ZM108.814 23.9368L108.4 23.489C109.247 22.6126 110.124 21.7462 111.005 20.9138L111.4 21.3812C110.525 22.2072 109.655 23.067 108.814 23.9368V23.9368ZM214.815 21.8132C213.943 20.9767 213.042 20.1517 212.139 19.3611L212.516 18.8785C213.427 19.675 214.334 20.5063 215.213 21.3491L214.815 21.8132ZM114.093 18.9528L113.719 18.467C114.635 17.678 115.582 16.8998 116.533 16.154L116.886 16.6572C115.942 17.3975 115.002 18.1697 114.093 18.9528V18.9528ZM209.359 17.0399C208.418 16.2906 207.45 15.5554 206.481 14.8548L206.815 14.3378C207.792 15.0437 208.767 15.7844 209.715 16.5395L209.359 17.0399ZM119.775 14.4995L119.445 13.9798C120.425 13.282 121.435 12.5988 122.446 11.9487L122.753 12.484C121.751 13.1291 120.749 13.8073 119.775 14.4995V14.4995ZM203.511 12.8108C202.51 12.1556 201.482 11.5169 200.455 10.9122L200.743 10.3649C201.778 10.9743 202.814 11.618 203.823 12.278L203.511 12.8108ZM125.815 10.615L125.531 10.0653C126.568 9.46501 127.632 8.88259 128.693 8.33398L128.953 8.89681C127.901 9.44114 126.845 10.0191 125.815 10.615ZM197.319 9.16355C196.265 8.60819 195.185 8.07168 194.109 7.56895L194.349 6.99601C195.433 7.50257 196.521 8.04323 197.584 8.60285L197.319 9.16355ZM132.161 7.33295L131.926 6.75817C133.01 6.26126 134.119 5.78468 135.222 5.3416L135.432 5.92738C134.338 6.36695 133.237 6.83986 132.161 7.33295H132.161ZM190.833 6.13188C189.735 5.68207 188.613 5.2529 187.495 4.85647L187.684 4.26243C188.81 4.66207 189.941 5.09445 191.047 5.54793L190.833 6.13188ZM138.77 4.67951L138.585 4.08425C139.711 3.69393 140.86 3.3264 142 2.99222L142.158 3.59574C141.027 3.92748 139.887 4.2921 138.77 4.67951ZM184.114 3.74807C182.984 3.40747 181.831 3.09026 180.688 2.80532L180.824 2.19568C181.976 2.48276 183.137 2.80241 184.276 3.14547L184.114 3.74807ZM145.59 2.67822L145.458 2.06751C146.612 1.78869 147.788 1.53465 148.953 1.31257L149.058 1.92894C147.902 2.14949 146.735 2.40155 145.59 2.67822ZM177.225 2.0308C176.071 1.80183 174.896 1.59812 173.732 1.42529L173.814 0.804954C174.987 0.979158 176.172 1.18441 177.334 1.41505L177.225 2.0308ZM152.555 1.34913L152.477 0.728171C153.65 0.562685 154.842 0.423505 156.022 0.314914L156.073 0.938929C154.903 1.04691 153.719 1.18487 152.555 1.34913V1.34913ZM170.216 0.989707C169.049 0.87347 167.861 0.783842 166.685 0.723736L166.714 0.0978991C167.899 0.158619 169.096 0.248856 170.272 0.366026L170.216 0.989707ZM159.606 0.698653L159.581 0.0728018C160.67 0.0247772 161.78 0.000306967 162.88 0L163.149 0.000463614L163.147 0.626926L162.88 0.626463C161.789 0.626773 160.687 0.65109 159.606 0.698657V0.698653Z" fill="#3F3D56"/>
<path d="M238.772 150.749C238.069 150.749 237.382 150.529 236.797 150.116C236.212 149.703 235.757 149.116 235.488 148.429C235.219 147.742 235.148 146.986 235.285 146.257C235.423 145.528 235.761 144.858 236.258 144.333C236.755 143.807 237.389 143.449 238.078 143.304C238.768 143.159 239.483 143.233 240.132 143.518C240.782 143.802 241.337 144.284 241.728 144.902C242.118 145.52 242.327 146.247 242.327 146.99C242.326 147.987 241.951 148.942 241.284 149.647C240.618 150.352 239.714 150.748 238.772 150.749ZM238.772 143.858C238.186 143.858 237.613 144.042 237.126 144.386C236.639 144.73 236.259 145.219 236.035 145.792C235.811 146.364 235.752 146.994 235.866 147.602C235.981 148.209 236.263 148.767 236.677 149.205C237.092 149.643 237.619 149.942 238.194 150.063C238.769 150.183 239.364 150.121 239.906 149.884C240.447 149.647 240.91 149.246 241.235 148.731C241.561 148.216 241.734 147.61 241.734 146.99C241.734 146.16 241.421 145.364 240.866 144.777C240.31 144.189 239.557 143.859 238.772 143.858Z" fill="#2F2E41"/>
<path d="M144.212 54.3172V74.8903C144.211 75.0804 144.14 75.2625 144.013 75.3969C143.886 75.5313 143.713 75.6071 143.534 75.6076H143.051V182.78C143.051 185.745 141.936 188.59 139.953 190.687C137.97 192.784 135.28 193.962 132.475 193.962H69.141C67.7523 193.962 66.3773 193.673 65.0944 193.11C63.8115 192.548 62.6458 191.725 61.664 190.686C60.6822 189.648 59.9035 188.415 59.3723 187.059C58.8411 185.702 58.5678 184.248 58.568 182.78V79.3664H58.2184C58.0916 79.3666 57.9699 79.3136 57.8799 79.2191C57.79 79.1245 57.7391 78.9962 57.7385 78.8621V67.1535C57.7385 67.0868 57.7509 67.0208 57.775 66.9593C57.7992 66.8977 57.8345 66.8418 57.8791 66.7946C57.9236 66.7475 57.9766 66.7101 58.0348 66.6846C58.093 66.6591 58.1554 66.646 58.2184 66.646H58.568V62.2357H58.2155C58.0823 62.2352 57.9549 62.1788 57.861 62.079C57.7671 61.9792 57.7146 61.844 57.7148 61.7032V50.1544C57.7152 50.0141 57.768 49.8797 57.8619 49.7805C57.9557 49.6813 58.0828 49.6254 58.2155 49.625H58.568V43.6047H58.2095C58.1512 43.6048 58.0934 43.5927 58.0394 43.5691C57.9855 43.5456 57.9364 43.511 57.8952 43.4673C57.8539 43.4237 57.8212 43.3718 57.7989 43.3148C57.7765 43.2578 57.7651 43.1966 57.7652 43.1349V36.8327C57.7649 36.7077 57.8116 36.5877 57.8949 36.499C57.9782 36.4104 58.0913 36.3603 58.2095 36.3597H58.568V23.5987C58.5681 20.6338 59.6821 17.7904 61.6649 15.6939C63.6477 13.5974 66.3369 12.4195 69.141 12.4194H132.475C135.279 12.4194 137.969 13.5971 139.952 15.6935C141.935 17.79 143.05 20.6334 143.051 23.5987V53.6H143.534C143.713 53.6005 143.886 53.6762 144.013 53.8106C144.14 53.945 144.211 54.1272 144.212 54.3172Z" fill="#3F3D56"/>
<path d="M103.859 18.1538H93.5678C93.152 18.1538 92.8148 18.5103 92.8148 18.95V19.8905C92.8148 20.3303 93.152 20.6867 93.5678 20.6867H103.859C104.275 20.6867 104.612 20.3303 104.612 19.8905V18.95C104.612 18.5103 104.275 18.1538 103.859 18.1538Z" fill="#E6E8EC"/>
<path d="M107.755 20.857C108.505 20.857 109.114 20.2138 109.114 19.4203C109.114 18.6269 108.505 17.9836 107.755 17.9836C107.004 17.9836 106.396 18.6269 106.396 19.4203C106.396 20.2138 107.004 20.857 107.755 20.857Z" fill="#E6E8EC"/>
<path d="M137.986 25.8098V183.707C137.986 185.588 137.278 187.391 136.02 188.721C134.762 190.051 133.056 190.798 131.277 190.798H70.6503C69.769 190.8 68.896 190.617 68.0814 190.262C67.2669 189.906 66.5267 189.384 65.9033 188.725C65.28 188.066 64.7858 187.284 64.4489 186.423C64.1121 185.561 63.9393 184.638 63.9404 183.707V25.8098C63.9404 24.8781 64.1139 23.9555 64.4511 23.0947C64.7883 22.2339 65.2826 21.4518 65.9056 20.793C66.5287 20.1342 67.2684 19.6116 68.0825 19.2551C68.8966 18.8985 69.7692 18.715 70.6503 18.7151H79.7243V19.9461C79.7243 21.4954 80.3064 22.9813 81.3425 24.0768C82.3786 25.1724 83.7839 25.7878 85.2492 25.7879H116.082C117.548 25.7878 118.953 25.1724 119.989 24.0768C121.025 22.9813 121.607 21.4954 121.607 19.9461V18.7151H131.277C132.158 18.7148 133.03 18.8981 133.845 19.2545C134.659 19.611 135.399 20.1335 136.022 20.7924C136.645 21.4513 137.139 22.2335 137.476 23.0944C137.813 23.9553 137.987 24.878 137.986 25.8098Z" fill="#47678F"/>
<path opacity="0.2" d="M135.628 70.4771H66.8999V105.872H135.628V70.4771Z" fill="black"/>
<path d="M243.461 30.0703H174.732V65.4655H243.461V30.0703Z" fill="#F2F2F2"/>
<path d="M135.628 124.127H66.8999V159.522H135.628V124.127Z" fill="#3F3D56"/>
<path d="M128.518 44.2531C131.791 44.2531 134.443 41.4484 134.443 37.9885C134.443 34.5286 131.791 31.7239 128.518 31.7239C125.246 31.7239 122.594 34.5286 122.594 37.9885C122.594 41.4484 125.246 44.2531 128.518 44.2531Z" fill="white"/>
<path d="M131.185 37.7871H128.709V35.1694H128.328V37.7871H125.852V38.1899H128.328V40.8076H128.709V38.1899H131.185V37.7871Z" fill="#3F3D56"/>
<path d="M235.758 25.3718H167.03V60.767H235.758V25.3718Z" fill="#3F3D56"/>
<path d="M197.711 49.1368C199.51 56.1688 205.673 60.5239 205.673 60.5239C205.673 60.5239 208.918 53.4778 207.119 46.4458C205.32 39.4137 199.157 35.0586 199.157 35.0586C199.157 35.0586 195.912 42.1047 197.711 49.1368Z" fill="white"/>
<path d="M200.355 47.6251C205.291 52.7066 205.894 60.5179 205.894 60.5179C205.894 60.5179 198.493 60.0906 193.556 55.0092C188.62 49.9278 188.017 42.1165 188.017 42.1165C188.017 42.1165 195.418 42.5437 200.355 47.6251Z" fill="#47678F"/>
<path d="M94.5715 148.431C96.3706 155.463 102.533 159.818 102.533 159.818C102.533 159.818 105.779 152.772 103.979 145.74C102.18 138.708 96.0178 134.353 96.0178 134.353C96.0178 134.353 92.7724 141.399 94.5715 148.431Z" fill="white"/>
<path d="M97.2152 146.92C102.152 152.001 102.755 159.812 102.755 159.812C102.755 159.812 95.3539 159.385 90.417 154.304C85.4802 149.222 84.8772 141.411 84.8772 141.411C84.8772 141.411 92.2784 141.838 97.2152 146.92Z" fill="#47678F"/>
<path d="M110.939 148.431C109.14 155.463 102.977 159.818 102.977 159.818C102.977 159.818 99.7316 152.772 101.531 145.74C103.33 138.708 109.492 134.353 109.492 134.353C109.492 134.353 112.738 141.399 110.939 148.431Z" fill="white"/>
<path d="M108.295 146.92C103.358 152.001 102.755 159.812 102.755 159.812C102.755 159.812 110.156 159.385 115.093 154.304C120.03 149.222 120.633 141.411 120.633 141.411C120.633 141.411 113.232 141.838 108.295 146.92Z" fill="#47678F"/>
<path d="M182.435 105.422H176.587V99.238H182.435V105.422ZM177.036 104.946H181.985V99.7137H177.036V104.946Z" fill="#3F3D56"/>
<path d="M28.8753 143.661L24.8864 139.139L29.163 134.921L33.1519 139.443L28.8753 143.661ZM25.5222 139.162L28.8974 142.988L32.5161 139.42L29.1408 135.593L25.5222 139.162Z" fill="#2F2E41"/>
<path d="M32.035 46.369C33.684 46.369 35.0208 44.9556 35.0208 43.2121C35.0208 41.4686 33.684 40.0552 32.035 40.0552C30.3861 40.0552 29.0493 41.4686 29.0493 43.2121C29.0493 44.9556 30.3861 46.369 32.035 46.369Z" fill="#3F3D56"/>
<path d="M32.0351 52.3324C30.3291 52.3324 28.6615 51.7975 27.2431 50.7954C25.8246 49.7933 24.7191 48.3689 24.0662 46.7024C23.4134 45.036 23.2426 43.2022 23.5754 41.4331C23.9082 39.664 24.7297 38.039 25.936 36.7635C27.1423 35.488 28.6792 34.6194 30.3524 34.2675C32.0255 33.9156 33.7598 34.0962 35.3359 34.7865C36.912 35.4768 38.2591 36.6457 39.2069 38.1455C40.1546 39.6453 40.6605 41.4086 40.6605 43.2123C40.6579 45.6303 39.7484 47.9484 38.1313 49.6582C36.5143 51.368 34.3219 52.3297 32.0351 52.3324ZM32.0351 34.7938C30.4604 34.7938 28.921 35.2876 27.6117 36.2126C26.3024 37.1377 25.2819 38.4524 24.6792 39.9907C24.0766 41.529 23.9189 43.2217 24.2262 44.8547C24.5334 46.4877 25.2917 47.9878 26.4052 49.1651C27.5187 50.3425 28.9373 51.1443 30.4818 51.4691C32.0263 51.7939 33.6271 51.6272 35.082 50.99C36.5368 50.3528 37.7803 49.2738 38.6552 47.8894C39.53 46.505 39.997 44.8774 39.997 43.2123C39.9946 40.9804 39.155 38.8406 37.6623 37.2624C36.1697 35.6842 34.146 34.7964 32.0351 34.7938Z" fill="#2F2E41"/>
<path d="M308.042 193.361H0V193.988H308.042V193.361Z" fill="#3F3D56"/>
<path d="M150.44 64.8389H81.712V100.234H150.44V64.8389Z" fill="#3F3D56"/>
<path d="M116.416 76.9746H115.824V100.283H116.416V76.9746Z" fill="white"/>
<path d="M116.12 80.5841C117.842 80.5841 119.237 79.1084 119.237 77.288C119.237 75.4676 117.842 73.9919 116.12 73.9919C114.398 73.9919 113.003 75.4676 113.003 77.288C113.003 79.1084 114.398 80.5841 116.12 80.5841Z" fill="#47678F"/>
<path d="M116.12 91.3396C116.12 91.3396 115.675 81.2122 106.545 82.3894L116.12 91.3396Z" fill="white"/>
<path d="M211.528 161.125L173.404 173.736L125.979 142.093L125.977 142.091L125.821 141.99L125.796 141.972L125.419 141.722L120.903 138.718C120.912 138.637 120.923 138.558 120.937 138.481C121.007 138.11 121.167 137.764 121.402 137.479C121.484 137.377 121.573 137.282 121.67 137.195H121.672C121.715 137.157 121.76 137.119 121.806 137.083C121.853 137.044 121.902 137.008 121.953 136.975C122.827 136.355 124.143 136.092 125.514 136.013C128.476 135.864 131.424 136.54 134.061 137.972C139.392 140.823 150.851 146.433 152.638 142.996C154.981 138.492 128.358 88.2736 128.358 88.2736C126.166 82.3172 127.77 80.3715 128.775 79.759C128.805 79.7409 128.835 79.7229 128.863 79.7071C128.969 79.6492 129.079 79.5996 129.193 79.5585C129.252 79.5358 129.312 79.517 129.374 79.5022C129.39 79.4974 129.406 79.4937 129.423 79.491L132.954 84.4543L133.007 84.5286L133.197 84.7966L133.254 84.8777L154.661 114.959C187.46 96.2681 198.749 146.262 198.749 146.262L211.528 161.125Z" fill="#FBBEBE"/>
<path d="M133.254 84.8779C133.177 85.0474 133.054 85.1896 132.902 85.2875C132.75 85.3854 132.574 85.4347 132.396 85.4296C132.278 85.4292 132.161 85.4125 132.047 85.3801C131.254 85.1548 130.336 84.2361 129.651 82.9817C128.982 81.7567 128.707 80.5248 128.863 79.7074C128.969 79.6495 129.079 79.5998 129.193 79.5587C129.252 79.536 129.312 79.5172 129.374 79.5024C129.099 80.0722 129.263 81.3671 130.021 82.7565C130.641 83.8938 131.48 84.754 132.155 84.9432C132.238 84.9796 132.327 84.9953 132.416 84.9893C132.505 84.9832 132.592 84.9554 132.669 84.9081C132.746 84.8608 132.812 84.7952 132.862 84.7166C132.911 84.6379 132.943 84.5482 132.954 84.4545L133.007 84.5288L133.197 84.7968L133.254 84.8779Z" fill="#3F3D56"/>
<path d="M125.821 141.99L125.796 141.972L125.419 141.722C125.421 141.08 124.961 140.028 123.945 138.972C123.086 138.087 122.09 137.506 121.402 137.479C121.484 137.377 121.573 137.282 121.67 137.195H121.672C121.715 137.157 121.76 137.119 121.806 137.083C122.734 137.372 123.574 137.912 124.243 138.65C125.359 139.81 125.972 141.132 125.821 141.99Z" fill="#3F3D56"/>
<path d="M280.761 141.953C289.131 168.585 286.191 193.592 286.191 193.592C286.191 193.592 269.683 175.418 261.313 148.785C252.944 122.153 255.883 97.1467 255.883 97.1467C255.883 97.1467 272.392 115.32 280.761 141.953Z" fill="#47678F"/>
<path d="M291.622 141.953C283.252 168.585 286.192 193.592 286.192 193.592C286.192 193.592 302.7 175.418 311.07 148.785C319.439 122.153 316.5 97.1467 316.5 97.1467C316.5 97.1467 299.991 115.32 291.622 141.953Z" fill="#47678F"/>
<path d="M294.992 142.241C295.553 170.299 285.764 193.273 285.764 193.273C285.764 193.273 275.064 170.757 274.503 142.699C273.942 114.641 283.732 91.6665 283.732 91.6665C283.732 91.6665 294.431 114.183 294.992 142.241Z" fill="#3F3D56"/>
<path d="M284.748 120.191C286.183 120.191 287.346 118.961 287.346 117.444C287.346 115.927 286.183 114.697 284.748 114.697C283.313 114.697 282.15 115.927 282.15 117.444C282.15 118.961 283.313 120.191 284.748 120.191Z" fill="#47678F"/>
<path d="M279.697 140.944C280.494 140.944 281.14 140.261 281.14 139.418C281.14 138.575 280.494 137.892 279.697 137.892C278.9 137.892 278.253 138.575 278.253 139.418C278.253 140.261 278.9 140.944 279.697 140.944Z" fill="#47678F"/>
<path d="M262.09 125.837C262.887 125.837 263.533 125.154 263.533 124.311C263.533 123.468 262.887 122.785 262.09 122.785C261.293 122.785 260.646 123.468 260.646 124.311C260.646 125.154 261.293 125.837 262.09 125.837Z" fill="#3F3D56"/>
<path d="M313.035 111.035C313.832 111.035 314.478 110.352 314.478 109.509C314.478 108.666 313.832 107.983 313.035 107.983C312.238 107.983 311.592 108.666 311.592 109.509C311.592 110.352 312.238 111.035 313.035 111.035Z" fill="#3F3D56"/>
<path d="M269.594 140.181C270.391 140.181 271.037 139.498 271.037 138.655C271.037 137.812 270.391 137.129 269.594 137.129C268.797 137.129 268.151 137.812 268.151 138.655C268.151 139.498 268.797 140.181 269.594 140.181Z" fill="#3F3D56"/>
<path d="M299.902 131.331C300.699 131.331 301.345 130.647 301.345 129.805C301.345 128.962 300.699 128.279 299.902 128.279C299.105 128.279 298.458 128.962 298.458 129.805C298.458 130.647 299.105 131.331 299.902 131.331Z" fill="#3F3D56"/>
<path d="M270.46 162.613C271.257 162.613 271.903 161.93 271.903 161.087C271.903 160.244 271.257 159.561 270.46 159.561C269.663 159.561 269.017 160.244 269.017 161.087C269.017 161.93 269.663 162.613 270.46 162.613Z" fill="#3F3D56"/>
<path d="M301.345 153.915C302.142 153.915 302.788 153.232 302.788 152.389C302.788 151.546 302.142 150.863 301.345 150.863C300.548 150.863 299.902 151.546 299.902 152.389C299.902 153.232 300.548 153.915 301.345 153.915Z" fill="#3F3D56"/>
<path d="M287.346 155.441C288.143 155.441 288.789 154.757 288.789 153.915C288.789 153.072 288.143 152.389 287.346 152.389C286.549 152.389 285.902 153.072 285.902 153.915C285.902 154.757 286.549 155.441 287.346 155.441Z" fill="#47678F"/>
</g>
<defs>
<clipPath id="clip0">
<rect width="317" height="194" fill="white"/>
</clipPath>
</defs>
</svg>
