<svg width="40" height="43" viewBox="0 0 40 43" fill="none" xmlns="http://www.w3.org/2000/svg">
<path d="M25.2915 9.37524H15.7085C13.9309 9.38021 12.2276 10.0609 10.9706 11.2685C9.71364 12.4761 9.00517 14.1126 9 15.8205V25.0274C9.00517 26.7352 9.71364 28.3717 10.9706 29.5793C12.2276 30.787 13.9309 31.4676 15.7085 31.4726H25.2915C27.0691 31.4676 28.7724 30.787 30.0294 29.5793C31.2864 28.3717 31.9948 26.7352 32 25.0274V15.8205C31.9948 14.1126 31.2864 12.4761 30.0294 11.2685C28.7724 10.0609 27.0691 9.38022 25.2915 9.37524Z" fill="#EFEEEE"/>
<path d="M26.4968 16.741C26.0992 16.7401 25.7183 16.5732 25.4376 16.2769C25.157 15.9806 24.9996 15.5792 25 15.1609C25.0004 14.7426 25.1587 14.3416 25.4399 14.0459C25.7212 13.7503 26.1025 13.5842 26.5 13.5842C26.8975 13.5842 27.2789 13.7503 27.5601 14.0459C27.8414 14.3416 27.9996 14.7426 28 15.1609C28.0004 15.5792 27.843 15.9806 27.5624 16.2769C27.2817 16.5732 26.9008 16.7401 26.5033 16.741H26.4968Z" fill="#203C60"/>
<path d="M20.5 17.6177C21.2253 17.6177 21.9342 17.844 22.5372 18.268C23.1402 18.6919 23.6102 19.2945 23.8877 19.9996C24.1653 20.7046 24.2379 21.4804 24.0964 22.2289C23.9549 22.9774 23.6056 23.6649 23.0928 24.2045C22.58 24.7441 21.9267 25.1116 21.2154 25.2604C20.5041 25.4093 19.7668 25.3329 19.0968 25.0409C18.4268 24.7488 17.8541 24.2543 17.4512 23.6198C17.0483 22.9852 16.8332 22.2392 16.8332 21.4761C16.8332 20.9694 16.928 20.4677 17.1123 19.9995C17.2966 19.5314 17.5667 19.1061 17.9072 18.7478C18.2477 18.3895 18.6519 18.1053 19.0968 17.9114C19.5417 17.7175 20.0185 17.6177 20.5 17.6177ZM20.5 15.6887C19.4122 15.6887 18.3489 16.0281 17.4444 16.6641C16.5399 17.3 15.835 18.2039 15.4187 19.2614C15.0024 20.3189 14.8935 21.4825 15.1057 22.6052C15.3179 23.7278 15.8417 24.759 16.6109 25.5684C17.3801 26.3778 18.3601 26.929 19.427 27.1523C20.4939 27.3756 21.5998 27.261 22.6048 26.823C23.6097 26.385 24.4687 25.6432 25.0731 24.6915C25.6774 23.7397 26 22.6208 26 21.4761C26 19.9412 25.4205 18.4692 24.3891 17.3838C23.3576 16.2985 21.9587 15.6888 20.5 15.6887V15.6887Z" fill="#203C60"/>
<path d="M20 42.0902C16.0444 42.0902 12.1776 40.8559 8.88859 38.5435C5.59961 36.231 3.03616 32.9442 1.52241 29.0987C0.00865633 25.2532 -0.387398 21.0218 0.384307 16.9394C1.15601 12.8571 3.06081 9.10718 5.85786 6.16397C8.65491 3.22076 12.2186 1.21642 16.0982 0.404389C19.9778 -0.407641 23.9991 0.00910866 27.6537 1.60196C31.3082 3.19482 34.4317 5.89222 36.6294 9.35307C38.827 12.8139 40 16.8828 40 21.0451C39.994 26.6247 37.8849 31.9739 34.1355 35.9193C30.3861 39.8646 25.3025 42.0839 20 42.0902ZM20 1.27547C16.2841 1.27547 12.6517 2.43493 9.56201 4.60724C6.47236 6.77956 4.06428 9.86716 2.64227 13.4796C1.22026 17.092 0.848189 21.067 1.57312 24.902C2.29806 28.7369 4.08743 32.2595 6.71496 35.0244C9.34249 37.7892 12.6902 39.6721 16.3347 40.4349C19.9792 41.1977 23.7568 40.8062 27.1898 39.3099C30.6228 37.8135 33.5571 35.2796 35.6216 32.0285C37.686 28.7774 38.7879 24.9552 38.7879 21.0451C38.7822 15.8037 36.801 10.7787 33.2788 7.07241C29.7566 3.36618 24.9811 1.28141 20 1.27547Z" fill="#EFEEEE"/>
</svg>
