<svg width="40" height="41" viewBox="0 0 40 41" fill="none" xmlns="http://www.w3.org/2000/svg">
<path d="M20 40.5095C16.0444 40.5095 12.1776 39.3365 8.88859 37.1389C5.59961 34.9413 3.03616 31.8177 1.52241 28.1632C0.00865633 24.5087 -0.387398 20.4873 0.384307 16.6077C1.15601 12.7281 3.06081 9.16443 5.85786 6.36739C8.65491 3.57034 12.2186 1.66553 16.0982 0.893828C19.9778 0.122124 23.9991 0.518178 27.6537 2.03193C31.3082 3.54568 34.4317 6.10913 36.6294 9.39811C38.827 12.6871 40 16.5539 40 20.5095C39.994 25.812 37.8849 30.8956 34.1355 34.645C30.3861 38.3945 25.3025 40.5035 20 40.5095ZM20 1.72165C16.2841 1.72165 12.6517 2.82353 9.56201 4.88797C6.47236 6.95241 4.06428 9.88668 2.64227 13.3197C1.22026 16.7527 0.848189 20.5304 1.57312 24.1749C2.29806 27.8193 4.08743 31.167 6.71496 33.7946C9.34249 36.4221 12.6902 38.2114 16.3347 38.9364C19.9792 39.6613 23.7568 39.2893 27.1898 37.8673C30.6228 36.4452 33.5571 34.0371 35.6216 30.9475C37.686 27.8578 38.7879 24.2254 38.7879 20.5095C38.7822 15.5284 36.801 10.7529 33.2788 7.23072C29.7566 3.70853 24.9811 1.7273 20 1.72165Z" fill="#EFEEEE"/>
<path d="M29.7 14.9697L32 14.5454C31.2923 15.3049 30.5235 16.0139 29.7 16.6666C29.6657 17.0902 29.6657 17.5157 29.7 17.9393C25.284 35.4177 9 27.6967 9 27.6967C14.934 27.8239 15.44 25.5755 15.44 25.5755C11.99 25.1088 11.3 23.0301 11.3 23.0301C11.6095 23.1807 11.9684 23.2206 12.3079 23.1424C12.6475 23.0641 12.9437 22.8731 13.14 22.6059C12.1278 22.3939 11.2374 21.8421 10.6421 21.0579C10.0469 20.2737 9.78947 19.3132 9.92001 18.3635C10.5841 18.8057 11.3602 19.0833 12.174 19.1696C11.76 18.7029 8.26399 14.8424 10.38 12.8485C10.38 12.8485 12.956 17.0908 19.718 17.4726L20.178 17.3878C20.0998 17.0822 20.0688 16.768 20.086 16.4545C20.086 15.2731 20.5949 14.1401 21.5007 13.3047C22.4065 12.4693 23.635 12 24.916 12C28.136 12 28.826 13.697 28.826 13.697L31.126 12.4242C31.08 12.4243 30.85 14.5454 29.7 14.9697Z" fill="#EFEEEE"/>
</svg>
