<svg width="456" height="391" viewBox="0 0 456 391" fill="none" xmlns="http://www.w3.org/2000/svg">
<g clip-path="url(#clip0)">
<path d="M161.174 7.71424C163.329 7.07827 165.495 6.50011 167.673 5.97976C204.588 -2.80539 242.194 1.11453 279.451 0.459767C304.337 0.0261469 330.825 -2.57557 354.111 11.942C366.875 19.9033 377.859 32.3786 390.714 40.084C403.57 47.7895 417.754 50.6253 429.564 61.713C461.351 91.5504 457.572 162.777 452.973 208.35C447.859 259.019 437.204 312.229 409.228 345.76C380.917 379.691 340.923 386.464 303.493 389.123C240.04 393.654 175.927 390.64 113.862 371.843C79.8967 361.57 44.3737 344.39 23.868 305.612C8.90013 277.313 4.05448 241.332 1.35618 206.49C-1.48341 169.832 -1.33507 128.599 16.6772 101.415C30.6138 80.4151 52.8112 71.0055 71.0954 58.9855C100.113 38.9566 129.25 17.1412 161.174 7.71424Z" fill="#F8E7DF"/>
<path d="M169.52 201.842C167.705 192.831 165.755 183.769 162.269 175.534C159.048 167.928 154.538 161.086 152.317 152.986C151.204 148.923 150.692 144.621 149.385 140.649C147.266 134.145 143.169 128.976 139.182 123.977C131.62 114.489 123.995 104.949 115.166 97.3176C108.317 91.4073 99.7703 86.5638 91.7743 89.6035C99.2715 92.8017 105.99 98.2725 111.305 105.509C107.152 106.255 105.757 113.435 107.816 117.928C109.875 122.42 113.901 124.866 117.553 127.402C122.078 130.558 126.345 134.243 130.292 138.407L126.806 140.762C127.481 151.169 139.902 156.598 139.313 166.996C139.076 171.181 136.628 174.849 136.551 179.042C136.339 190.433 152.2 194.002 152.507 205.389C152.67 211.308 148.22 216.641 149.202 222.443C150.734 231.51 163.919 233.5 163.149 242.711C162.739 247.667 158.081 250.733 157.378 255.637C156.83 259.444 158.882 263.125 161.319 265.575C163.756 268.025 166.663 269.742 168.906 272.457C174.203 278.857 174.557 288.961 175.161 298.041C175.45 302.268 178.692 324.704 185.198 320.589C189.765 317.705 183.75 289.719 183.107 284.65C179.571 256.821 175.042 229.218 169.52 201.842Z" fill="#F6C582"/>
<path d="M169.287 233.114C166.663 224.412 163.901 215.67 159.688 207.964C155.803 200.849 150.696 194.665 147.75 186.895C146.274 182.992 145.373 178.808 143.717 175.04C141.008 168.882 136.48 164.29 132.062 159.863C123.688 151.472 115.254 143.03 105.771 136.66C98.4283 131.725 89.4928 128.078 81.8252 132.198C89.5608 134.35 96.7284 138.867 102.663 145.328C98.6049 146.629 97.8702 153.966 100.325 158.146C102.779 162.326 107 164.216 110.86 166.228C115.645 168.745 120.219 171.824 124.521 175.421L121.272 178.24C122.883 188.473 135.724 192.181 136.085 202.596C136.226 206.785 134.128 210.77 134.432 214.946C135.255 226.294 151.342 227.668 152.684 238.942C153.39 244.805 149.442 250.715 150.943 256.343C153.291 265.146 166.575 265.315 166.649 274.577C166.688 279.555 162.34 283.25 162.086 288.21C161.888 292.069 164.261 295.447 166.903 297.546C169.545 299.645 172.593 300.959 175.069 303.348C180.9 308.985 182.175 318.958 183.612 327.917C184.28 332.075 189.56 353.934 195.62 348.965C199.894 345.47 191.382 318.486 190.277 313.534C184.254 286.372 177.257 259.565 169.287 233.114Z" fill="#8E6390"/>
<path d="M190.619 190.798C188.324 173.782 184.93 157.023 181.539 140.281L176.711 116.432C175.489 110.404 174.267 104.355 172.445 98.5621C170.739 93.1245 168.524 87.9514 166.313 82.7957L145.348 33.8659C144.331 31.4897 142.12 28.7319 140.404 30.3753C141.852 38.8627 143.302 47.3486 144.755 55.8332C145.147 58.1313 145.529 60.603 144.801 62.7711C144.204 64.5446 142.957 65.8455 142.05 67.4108C139.263 72.224 140.1 79.1446 142.816 84.0185C144.875 87.7173 147.969 90.822 148.668 95.2189C149.47 100.262 146.832 105.118 146.298 110.218C145.066 122.043 155.128 132.554 153.44 144.292C152.889 148.108 151.105 151.633 151.091 155.505C151.091 158.432 152.084 161.199 153.065 163.861L159.868 182.264C160.316 183.469 160.768 184.727 160.775 186.054C160.775 189.831 157.403 192.163 156.128 195.593C153.507 202.666 160.482 209.617 161.143 217.344C161.468 221.164 160.2 224.876 159.377 228.575C154.987 248.009 162.375 268.242 169.88 286.181C172.512 292.477 177.16 303.959 184.202 303.487C189.793 303.092 190.955 294.229 191.682 288.878C194.487 268.255 194.744 246.696 193.801 225.864C193.257 214.114 192.195 202.407 190.619 190.798Z" fill="#9FAAD7"/>
<path d="M334.053 26.5505H192.251C185.083 26.5505 179.271 33.6851 179.271 42.4861V334.386C179.271 343.187 185.083 350.322 192.251 350.322H334.053C341.222 350.322 347.033 343.187 347.033 334.386V42.4861C347.033 33.6851 341.222 26.5505 334.053 26.5505Z" fill="#131B3F"/>
<path d="M331.14 57.6238H195.165V319.24H331.14V57.6238Z" fill="#56659C"/>
<path d="M331.14 57.6238H195.165V68.7938H331.14V57.6238Z" fill="#677AC9"/>
<path d="M324.641 66.0057C325.897 66.0057 326.916 64.7554 326.916 63.2132C326.916 61.6709 325.897 60.4207 324.641 60.4207C323.385 60.4207 322.367 61.6709 322.367 63.2132C322.367 64.7554 323.385 66.0057 324.641 66.0057Z" fill="white"/>
<path d="M316.938 66.0057C318.194 66.0057 319.213 64.7554 319.213 63.2132C319.213 61.6709 318.194 60.4207 316.938 60.4207C315.682 60.4207 314.664 61.6709 314.664 63.2132C314.664 64.7554 315.682 66.0057 316.938 66.0057Z" fill="white"/>
<path d="M308.137 66.0057C309.393 66.0057 310.411 64.7554 310.411 63.2132C310.411 61.6709 309.393 60.4207 308.137 60.4207C306.881 60.4207 305.862 61.6709 305.862 63.2132C305.862 64.7554 306.881 66.0057 308.137 66.0057Z" fill="white"/>
<path d="M221.286 129.822C229.246 129.822 235.699 121.899 235.699 112.125C235.699 102.352 229.246 94.4294 221.286 94.4294C213.326 94.4294 206.873 102.352 206.873 112.125C206.873 121.899 213.326 129.822 221.286 129.822Z" fill="#677AC9"/>
<path d="M221.286 236.904C229.246 236.904 235.699 228.981 235.699 219.208C235.699 209.435 229.246 201.512 221.286 201.512C213.326 201.512 206.873 209.435 206.873 219.208C206.873 228.981 213.326 236.904 221.286 236.904Z" fill="#677AC9"/>
<path d="M319.213 99.3123H247.626V104.195H319.213V99.3123Z" fill="#677AC9"/>
<path d="M275.962 109.684H247.626V114.567H275.962V109.684Z" fill="#677AC9"/>
<path d="M303.786 120.056H247.626V124.939H303.786V120.056Z" fill="#677AC9"/>
<path d="M321.035 109.684H282.584V114.567H321.035V109.684Z" fill="#677AC9"/>
<path d="M317.464 206.395H245.878V211.277H317.464V206.395Z" fill="#677AC9"/>
<path d="M274.214 216.767H245.878V221.649H274.214V216.767Z" fill="#677AC9"/>
<path d="M302.037 227.144H245.878V232.026H302.037V227.144Z" fill="#677AC9"/>
<path d="M319.287 216.767H280.836V221.649H319.287V216.767Z" fill="#677AC9"/>
<path d="M257.279 274.955C257.253 278.72 256.631 282.442 255.449 285.917H255.237C250.508 285.609 244.702 286.38 240.135 284.728C237.158 283.653 234.99 281.593 234.446 279.148C234.356 279.545 234.31 279.954 234.308 280.366C234.308 282.851 235.971 285.058 238.546 286.437C239.187 286.225 239.842 286.08 240.503 286.003C241.154 285.926 241.809 285.91 242.463 285.956C244.635 286.103 246.387 287.386 248.248 288.254C250.385 288.254 252.521 288.215 254.499 288.297C254.393 288.531 254.284 288.761 254.171 288.991C253.795 289.747 253.379 290.472 252.924 291.159C251.524 293.361 249.713 295.117 247.644 296.28C244.112 298.227 240.128 298.249 236.265 298.24H235.283C233.962 296.891 233.164 295.17 233.128 293.331C232.907 293.938 232.776 294.589 232.743 295.252C232.704 296.292 232.899 297.324 233.308 298.236L207.042 298.184C208.96 298.184 210.772 284.429 210.927 282.573C211.372 276.98 209.723 271.681 209.825 266.399C213.537 266.065 217.189 269.599 220.901 267.752C222.173 267.119 223.179 265.909 224.154 264.717C228.12 259.908 230.462 255.398 230.557 248.313C230.66 241.032 228.06 233.631 230.698 226.597C231.673 223.995 233.619 221.645 235.954 221.658C238.634 221.658 240.683 224.772 241.477 227.92C243.664 236.592 239.401 245.759 239.259 254.804C239.245 255.554 239.264 256.304 239.316 257.05C239.337 257.393 239.369 257.74 239.408 258.087C244.285 257.488 249.802 257.128 253.457 261.122C254.264 262.02 254.942 263.079 255.463 264.253C255.163 264.366 254.852 264.474 254.524 264.556C250.946 265.506 248.167 268.767 244.543 269.478C243.798 269.626 243.047 269.719 242.293 269.755C237.465 269.972 233.485 267.704 232.786 264.118C232.665 264.747 232.645 265.397 232.726 266.035C233.104 268.875 235.509 270.952 238.797 271.707C240.026 271.096 241.316 270.684 242.632 270.484C243.397 270.363 244.168 270.302 244.939 270.302C245.77 270.311 246.599 270.427 247.411 270.649C249.77 269.383 251.932 267.501 254.506 266.82C255.077 266.671 255.634 266.453 256.17 266.169C256.615 267.638 256.922 269.164 257.085 270.718C257.148 271.317 257.201 271.919 257.229 272.518C257.229 272.795 257.261 273.077 257.268 273.355C257.282 273.901 257.289 274.426 257.279 274.955Z" fill="#C36A58"/>
<path d="M258.96 259.986C258.79 261.071 258.329 262.054 257.65 262.778C257 263.45 256.247 263.955 255.435 264.261C255.135 264.374 254.824 264.482 254.496 264.565C250.918 265.514 248.138 268.775 244.515 269.486C243.77 269.635 243.019 269.727 242.265 269.764C237.437 269.981 233.457 267.713 232.757 264.127C232.736 264.01 232.715 263.893 232.697 263.776C232.245 260.346 234.873 256.838 238.931 254.925L239.231 254.787C243.356 252.948 248.29 252.796 252.599 251.972C253.906 251.725 255.329 251.5 256.484 252.311C257.374 252.944 257.929 254.097 258.345 255.251C258.992 257.054 259.182 258.642 258.96 259.986Z" fill="#F2A881"/>
<path d="M261.764 278.896C261.599 280.29 261.187 281.622 260.556 282.799C260.39 283.102 260.224 283.389 260.055 283.666C258.826 285.509 257.459 286.034 255.463 285.938H255.251C250.522 285.63 244.716 286.402 240.149 284.75C237.172 283.675 235.004 281.615 234.46 279.169C234.368 278.776 234.321 278.369 234.322 277.96C234.322 275.397 236.088 273.133 238.79 271.755C240.019 271.143 241.309 270.732 242.625 270.532C243.39 270.411 244.16 270.35 244.931 270.35C245.763 270.358 246.592 270.475 247.404 270.697C250.558 271.516 253.267 273.48 256.834 272.639C256.968 272.609 257.095 272.583 257.222 272.565C260.835 271.932 262.195 275.323 261.764 278.896Z" fill="#F2A881"/>
<path d="M256.057 296.904C255.838 297.755 255.531 298.566 255.142 299.319C255 299.6 254.845 299.871 254.679 300.13C253.514 301.969 252.292 302.381 250.494 302.116C246.503 301.54 241.545 301.969 237.755 300.052C236.861 299.61 236.027 299.001 235.283 298.248C233.962 296.9 233.163 295.178 233.128 293.34C233.128 293.21 233.128 293.071 233.128 292.937C233.266 289.901 235.47 287.451 238.542 286.432C239.184 286.221 239.838 286.076 240.499 285.999C241.151 285.922 241.806 285.906 242.459 285.951C244.631 286.098 246.383 287.382 248.244 288.249C249.572 288.949 251.032 289.183 252.461 288.926C253.027 288.792 253.609 288.813 254.167 288.986C256.488 289.754 256.947 293.531 256.057 296.904Z" fill="#F2A881"/>
<path d="M256.166 266.186C255.631 266.47 255.073 266.688 254.503 266.837C251.928 267.518 249.767 269.4 247.407 270.666C246.595 270.444 245.767 270.328 244.935 270.319C244.164 270.319 243.394 270.38 242.629 270.501C241.306 270.702 240.01 271.116 238.776 271.732C235.487 270.978 233.082 268.901 232.704 266.061C232.624 265.423 232.644 264.772 232.764 264.144C233.471 267.721 237.444 269.989 242.272 269.781C243.026 269.745 243.777 269.652 244.522 269.504C248.153 268.792 250.925 265.532 254.503 264.582C254.831 264.5 255.142 264.391 255.442 264.278C255.72 264.892 255.962 265.53 256.166 266.186Z" fill="#8C6239"/>
<path d="M244.917 270.319C245.749 270.328 246.578 270.444 247.39 270.666C246.469 271.177 245.5 271.543 244.504 271.754C243.759 271.903 243.008 271.995 242.254 272.032C241.083 272.092 239.91 271.988 238.758 271.724C239.987 271.113 241.277 270.702 242.593 270.501C243.364 270.379 244.14 270.318 244.917 270.319Z" fill="#F2A881"/>
<path d="M255.449 285.917C255.166 286.731 254.846 287.526 254.492 288.297C252.514 288.215 250.378 288.275 248.241 288.254C246.38 287.387 244.628 286.086 242.456 285.956C241.802 285.91 241.147 285.926 240.496 286.003C239.835 286.08 239.18 286.225 238.539 286.437C235.971 285.054 234.301 282.846 234.301 280.366C234.302 279.954 234.349 279.545 234.439 279.148C234.982 281.593 237.151 283.653 240.128 284.728C244.695 286.38 250.501 285.596 255.23 285.917H255.449Z" fill="#8C6239"/>
<path d="M242.456 285.955C244.628 286.103 246.38 287.386 248.241 288.253C245.415 288.223 242.59 288.037 240.135 287.148C239.591 286.952 239.058 286.713 238.539 286.432C239.18 286.221 239.835 286.076 240.496 285.999C241.147 285.923 241.802 285.908 242.456 285.955Z" fill="#F2A881"/>
<path d="M235.276 298.248H233.301C232.892 297.337 232.697 296.305 232.736 295.265C232.769 294.602 232.9 293.951 233.121 293.344C233.149 295.178 233.955 296.883 235.276 298.248Z" fill="#8C6239"/>
<path d="M209.126 298.183H195.161V262.683L211.485 266.252C211.51 266.325 211.535 266.399 211.556 266.477C211.577 266.555 211.612 266.646 211.637 266.733C214.42 275.739 213.484 287.2 209.126 298.183Z" fill="#FAB452"/>
<path d="M300.063 311.847C312.717 311.847 322.974 299.253 322.974 283.718C322.974 268.183 312.717 255.589 300.063 255.589C287.41 255.589 277.152 268.183 277.152 283.718C277.152 299.253 287.41 311.847 300.063 311.847Z" fill="white"/>
<path d="M284.368 276.867L294.091 293.856" stroke="#FBB03B" stroke-width="13" stroke-linecap="round" stroke-linejoin="round"/>
<path d="M319.255 250.234L294.091 293.856" stroke="#FBB03B" stroke-width="13" stroke-linecap="round" stroke-linejoin="round"/>
<path d="M356.975 265.415L332.001 370.104" stroke="#838BC5" stroke-width="10.47" stroke-miterlimit="10" stroke-linecap="round"/>
<path d="M386.487 369.601L410.231 270.059C410.65 268.305 410.924 266.504 411.047 264.682" stroke="#838BC5" stroke-width="10.47" stroke-miterlimit="10" stroke-linecap="round"/>
<path d="M405.333 290.591H350.967" stroke="#838BC5" stroke-width="10.47" stroke-miterlimit="10" stroke-linecap="round"/>
<path d="M399.261 316.044H344.896" stroke="#838BC5" stroke-width="10.47" stroke-miterlimit="10" stroke-linecap="round"/>
<path d="M392.417 344.737H338.052" stroke="#838BC5" stroke-width="10.47" stroke-miterlimit="10" stroke-linecap="round"/>
<path d="M381.606 369.601L357.851 270.059C354.125 254.449 362.474 238.435 376.499 234.29C390.524 230.144 404.912 239.437 408.638 255.047L436.084 370.104" stroke="#65C8D0" stroke-width="10.47" stroke-miterlimit="10" stroke-linecap="round"/>
<path d="M362.76 290.591H417.125" stroke="#65C8D0" stroke-width="10.47" stroke-miterlimit="10" stroke-linecap="round"/>
<path d="M368.831 316.044H423.197" stroke="#65C8D0" stroke-width="10.47" stroke-miterlimit="10" stroke-linecap="round"/>
<path d="M375.676 344.737H430.041" stroke="#65C8D0" stroke-width="10.47" stroke-miterlimit="10" stroke-linecap="round"/>
<path d="M394.5 166.488C394.098 165.575 393.846 164.573 393.759 163.54C393.721 162.752 393.832 161.964 394.084 161.237C394.345 160.621 394.61 160.435 394.981 159.737C395.327 159.061 395.575 158.318 395.715 157.538C396.09 155.761 395.62 154.442 395.553 152.036C395.451 148.515 395.436 147.6 395.634 146.334C395.801 145.247 396.08 144.19 396.464 143.19C395.32 143.537 394.345 144.153 393.759 144.994C391.52 148.315 396.764 153.753 394.034 158.154C392.915 159.958 391.484 159.936 391.279 161.515C391.05 163.362 387.688 167.598 394.5 166.488Z" fill="#C36A58"/>
<path d="M393.759 163.54C393.846 164.573 394.098 165.575 394.501 166.489C395.475 167.243 396.45 167.846 397.068 168.223L397.315 168.379C398.022 168.813 398.707 169.247 399.385 169.576C400.73 170.323 402.21 170.63 403.68 170.465C405.633 170.227 408.441 169.065 409.193 166.827C410.037 164.325 407.551 162.777 405.612 158.155C402.659 151.113 405.075 146.742 402.825 144.335C402.664 144.162 402.49 144.008 402.306 143.876C400.95 142.883 398.908 142.644 397.111 143.008C396.892 143.052 396.676 143.108 396.464 143.173C396.08 144.174 395.801 145.23 395.634 146.317C395.436 147.583 395.451 148.485 395.553 152.019C395.62 154.426 396.09 155.744 395.715 157.522C395.575 158.301 395.327 159.045 394.981 159.72C394.61 160.418 394.345 160.587 394.084 161.22C393.83 161.952 393.719 162.746 393.759 163.54Z" fill="#F2A881"/>
<path d="M409.874 140.593C407.508 146.507 399.66 156.021 392.728 155.7C391.853 154.709 391.019 153.664 390.231 152.569C387.889 149.322 387.465 147.748 387.292 146.932C386.97 145.306 386.928 143.615 387.168 141.967C387.31 140.836 387.638 139.73 388.292 137.562C389.351 134.093 389.627 133.872 389.704 132.679C389.863 130.572 389.111 129.18 388.496 127.454C388.02 126.135 387.665 124.755 387.437 123.339C387.822 122.59 388.239 121.866 388.687 121.171C390.598 118.101 393.31 116.401 395.783 115.43C397.533 115.3 399.29 115.364 401.031 115.621C402.44 115.802 403.81 116.302 405.071 117.095C411.792 121.366 412.809 133.269 409.874 140.593Z" fill="#F2A881"/>
<path d="M392.727 155.7C392.064 155.673 391.406 155.549 390.767 155.331C389.789 154.449 388.924 153.392 388.2 152.196C387.846 151.607 384.986 146.876 385.805 142.843C385.879 142.479 386.081 141.659 386.511 139.682C387.055 137.137 387.331 135.87 387.387 135.346C387.74 132.224 386.465 131.166 386.328 128.447C386.266 126.637 386.668 124.85 387.476 123.334C387.704 124.75 388.059 126.13 388.535 127.45C389.15 129.184 389.902 130.567 389.743 132.675C389.655 133.867 389.362 134.093 388.33 137.557C387.677 139.725 387.348 140.831 387.207 141.963C386.967 143.61 387.009 145.301 387.331 146.928C387.504 147.73 387.928 149.304 390.269 152.565C391.045 153.66 391.866 154.706 392.727 155.7Z" fill="#C36A58"/>
<path d="M421.844 345.296C416.193 346.597 414.738 336.745 412.891 329.955L412.064 326.919C412.732 327.091 413.408 327.212 414.088 327.284C414.332 328.181 414.572 329.079 414.816 329.976C416.433 335.908 417.754 344.199 421.844 345.296Z" fill="#C36A58"/>
<path d="M424.719 343.874C423.833 344.546 422.861 345.027 421.844 345.296C417.754 344.199 416.433 335.9 414.815 329.955C414.572 329.057 414.332 328.16 414.088 327.262C414.881 327.348 415.677 327.362 416.472 327.305C420.406 327.024 423.853 324.955 425.778 321.512C425.919 322.215 426.054 322.919 426.181 323.624C426.573 325.753 426.908 327.899 427.163 330.059C427.749 335.041 428.529 341.134 424.719 343.874Z" fill="#F2A881"/>
<path d="M413.957 327.236C413.322 327.16 412.69 327.043 412.064 326.885C409.327 316.69 406.767 306.387 404.912 295.811C404.418 293.002 403.973 290.174 403.535 287.334C404.104 284.309 405.043 281.408 406.318 278.727C407.293 285.699 408.034 292.802 409.016 299.779C410.323 309.119 412.064 318.234 413.957 327.236Z" fill="#182345"/>
<path d="M425.121 245.043C425.121 245.113 425.121 245.182 425.121 245.252C425.04 246.552 424.899 248.044 424.733 249.796C424.493 252.315 424.185 254.83 423.832 257.341C422.639 259.431 420.784 261.838 417.973 265.042C413.505 270.128 411.263 271.98 409.649 273.74C408.347 275.195 407.229 276.881 406.332 278.74C405.057 281.421 404.119 284.323 403.549 287.347C402.437 280.106 401.384 272.843 399.749 265.835C399.364 264.179 398.947 262.54 398.488 260.918C395.843 251.561 395.73 241.952 401.956 235.165C403.752 233.229 405.859 231.777 408.14 230.903C410.148 230.134 412.271 229.923 414.353 230.287C414.812 230.365 419.04 231.185 422.123 234.55C423.097 235.595 423.888 236.871 424.45 238.301C424.708 238.968 424.898 239.671 425.015 240.395C425.223 241.931 425.258 243.495 425.121 245.043Z" fill="#182345"/>
<path d="M425.778 321.512C425.591 321.849 425.388 322.172 425.171 322.479C422.716 326.005 418.503 327.778 413.957 327.249C412.064 318.234 410.323 309.119 409.013 299.792C408.031 292.815 407.289 285.713 406.314 278.74C407.212 276.88 408.329 275.195 409.631 273.74C411.227 271.963 413.488 270.128 417.955 265.042C420.781 261.837 422.621 259.431 423.815 257.341C422.843 264.318 421.537 271.256 420.438 278.155C418.976 287.33 420.233 296.124 422.091 304.883C423.264 310.407 424.669 315.923 425.778 321.512Z" fill="#303F6A"/>
<path d="M385.692 325.601C384.071 326.035 382.337 325.419 380.906 324.248C376.668 320.779 375.051 313.373 374.758 306.587L374.726 305.902C375.465 306.127 376.215 306.291 376.972 306.392V306.587C377.265 313.373 378.869 320.771 383.121 324.248C383.9 324.897 384.773 325.356 385.692 325.601Z" fill="#C36A58"/>
<path d="M390.58 316.829C390.301 320.576 388.698 324.435 386.059 325.467C385.939 325.515 385.816 325.554 385.706 325.593C384.79 325.346 383.921 324.886 383.146 324.24C378.908 320.771 377.29 313.365 376.997 306.578V306.383C377.985 306.523 378.982 306.55 379.974 306.466C383.711 306.145 386.992 304.207 388.924 301.011C389.016 301.806 389.117 302.599 389.227 303.391C389.338 304.183 389.456 304.945 389.581 305.677C390.114 309.367 390.863 313.091 390.58 316.829Z" fill="#F2A881"/>
<path d="M424.761 238.504C423.274 237.966 421.469 238.101 420.286 237.849C417.959 237.351 415.617 236.44 413.261 235.638C412.449 235.36 411.637 235.1 410.824 234.87C408.766 234.223 406.637 233.98 404.517 234.151C393.335 235.395 378.427 243.062 375.909 259.99C375.058 265.675 375.404 271.555 375.75 277.335C376.336 287.087 376.841 296.705 377.283 306.431C376.424 306.333 375.573 306.157 374.736 305.902C374.263 295.001 373.705 284.268 373.052 273.38C372.699 267.6 372.345 261.72 373.211 256.035C375.739 239.124 390.647 231.441 401.818 230.196C403.939 230.026 406.068 230.269 408.126 230.916C408.938 231.146 409.751 231.406 410.563 231.683C412.919 232.486 415.26 233.396 417.588 233.895C418.782 234.151 420.611 234.008 422.105 234.563C423.119 234.94 423.984 235.634 424.394 236.991C424.544 237.484 424.667 237.99 424.761 238.504Z" fill="#303F6A"/>
<path d="M419.1 259.257C415.01 263.732 409.465 265.298 404.411 265.991C404.015 266.048 402.094 265.935 399.735 265.835C395.168 265.64 388.955 265.467 388.931 266.559C388.814 272.04 388.284 276.871 388.108 282.668C387.924 288.803 388.189 294.946 388.899 301.024C386.519 304.965 382.083 306.99 377.272 306.435C376.831 296.709 376.326 287.091 375.739 277.339C375.386 271.559 375.033 265.679 375.898 259.994C378.427 243.083 393.335 235.399 404.506 234.155C406.631 233.983 408.765 234.226 410.828 234.875C411.64 235.105 412.453 235.365 413.265 235.642C415.621 236.444 417.962 237.377 420.29 237.854C421.473 238.105 423.278 237.971 424.765 238.508C424.878 239.131 424.957 239.763 425.001 240.399C425.492 247.155 422.532 255.502 419.1 259.257Z" fill="#58659C"/>
<path d="M378.526 172.798C377.106 171.019 375.822 169.084 374.691 167.018C372.704 163.365 371.193 159.355 370.212 155.132C369.081 150.254 368.649 145.171 368.937 140.112L374.306 139.617C374.768 140.892 375.411 142.592 376.223 144.569C377.694 148.146 379.371 151.589 381.242 154.872C382.136 156.437 383.086 157.951 384.018 159.477C384.583 160.401 385.307 161.255 386.204 161.441C386.911 161.589 387.617 161.307 388.302 161.099C389.364 160.779 390.454 160.621 391.548 160.63L390.658 166.935C390.642 167.166 390.579 167.388 390.474 167.581C390.341 167.747 390.174 167.864 389.99 167.92C386.171 169.541 382.35 171.167 378.526 172.798Z" fill="#F69B0F"/>
<path d="M410.927 243.317C407.748 243.179 404.591 241.882 402.143 238.981C400.229 236.7 398.481 232.876 395.281 232.629C393.148 232.603 391.038 233.168 389.107 234.281C387.341 235.261 386.19 236.397 385.575 235.677C384.961 234.957 385.416 232.52 385.575 231.74C387.218 223.687 388.45 214.499 388.662 212.812C389.286 206.528 389.286 200.173 388.662 193.889C388.539 192.588 388.359 191.239 388.281 189.804C391.265 198.325 391.841 204.76 391.668 209.417C391.558 212.396 391.025 217.617 393.639 220.86C395.902 223.67 398.749 222.794 400.628 226.363C401.847 228.674 401.07 229.832 402.599 232.741C403.715 234.857 404.771 235.469 406.544 237.364C408.193 239.126 409.665 241.125 410.927 243.317Z" fill="#F69B0F"/>
<path d="M424.274 229.819C424.274 232.59 424.33 234.879 424.358 236.423C423.084 238.168 421.577 239.635 419.901 240.759C417.198 242.52 414.177 243.415 411.118 243.361H410.927C409.67 241.163 408.204 239.159 406.558 237.39C404.792 235.495 403.733 234.884 402.613 232.768C401.084 229.862 401.861 228.7 400.642 226.389C398.763 222.82 395.917 223.696 393.653 220.886C391.039 217.643 391.573 212.422 391.682 209.443C391.855 204.786 391.279 198.351 388.295 189.83C388.295 189.735 388.295 189.64 388.295 189.54C388.277 189.15 388.267 188.751 388.27 188.347L387.808 188.386H387.786C386.759 188.469 385.636 188.538 384.438 188.573C381.215 188.668 377.991 188.449 374.796 187.918C369.499 187.12 368.121 186.184 367.164 184.957C366.634 184.267 366.179 183.222 365.289 181.175C364.4 179.144 363.596 177.058 362.88 174.927C361.768 171.553 359.804 164.546 356.004 154.248C357.113 154.378 357.646 154.178 358.67 153.701C360.394 152.899 361.305 151.785 362.227 149.634C370.389 163.77 372.766 165.361 375.196 166.215C379.434 167.707 384.354 166.701 386.642 166.215C390.849 165.322 392.957 164.62 395.662 162.616C399.961 159.438 400.081 156.728 402.602 156.455C405.364 156.151 407.547 159.212 411.937 165.327C414.348 168.556 416.423 172.141 418.114 175.998C420.02 180.459 421.461 185.196 422.402 190.099C424.214 198.793 424.376 206.004 424.461 210.549C424.549 216.303 424.2 218.514 424.274 229.819Z" fill="#FAB452"/>
<path d="M358.656 153.662L358.635 153.588L358.656 153.662Z" fill="#0000FF"/>
<path d="M383.967 104.146L245.797 68.1814C243.614 67.6132 241.469 69.3252 241.006 72.0053L235.603 103.294C235.141 105.974 236.535 108.607 238.718 109.175L376.888 145.14C379.071 145.709 381.216 143.996 381.678 141.316L387.081 110.028C387.544 107.348 386.15 104.715 383.967 104.146Z" fill="white"/>
<path d="M254.969 101.194L247.075 103.93L250.106 94.5725L245.55 86.2036L253.733 86.8541L258.808 78.9448L260.835 88.7013L268.531 92.1833L261.598 97.5645L261.277 107.624L254.969 101.194Z" fill="#FFA634"/>
<path d="M281.899 108.201L274.005 110.937L277.036 101.58L272.48 93.211L280.663 93.8614L285.738 85.9521L287.765 95.7086L295.461 99.1906L288.528 104.572L288.21 114.636L281.899 108.201Z" fill="#FFA634"/>
<path d="M309.186 115.304L301.296 118.04L304.326 108.683L299.766 100.314L307.953 100.964L313.028 93.0508L315.056 102.812L322.752 106.294L315.819 111.675L315.497 121.735L309.186 115.304Z" fill="#FFA634"/>
<path d="M336.476 122.407L328.583 125.143L331.616 115.785L327.057 107.412L335.24 108.063L340.319 100.153L342.343 109.91L350.038 113.396L343.105 118.777L342.788 128.837L336.476 122.407Z" fill="#FFA634"/>
<path d="M364.088 129.592L356.194 132.328L359.225 122.97L354.669 114.597L362.852 115.248L367.927 107.338L369.954 117.095L377.65 120.581L370.717 125.962L370.396 136.022L364.088 129.592Z" fill="#DADADA"/>
<path d="M362.795 150.549C361.805 152.87 360.244 154.75 358.335 155.921C358.215 155.548 358.14 155.306 358.109 155.184C357.3 151.993 357.215 150.497 356.064 149.079C354.824 147.552 353.991 148.168 351.211 146.876C348.603 145.668 346.277 143.688 344.441 141.113C344.204 140.779 341.555 136.907 342.268 135.524C342.349 135.375 342.465 135.259 342.6 135.194C347.686 136.127 350.183 138.988 351.236 137.896C351.264 137.864 351.29 137.829 351.313 137.792C352.193 136.59 350.84 132.996 351.409 132.588C351.73 132.358 352.447 133.299 353.351 134.787C354.912 137.354 357.028 141.534 358.603 144.014C360.122 146.377 361.513 148.554 362.795 150.549Z" fill="#F2A881"/>
<path d="M357.72 156.264L357.367 156.437C357.014 156.593 357.056 156.355 356.918 155.921C356.781 155.488 356.039 154.334 356.004 154.209C355.195 151.017 355.35 150.497 354.195 149.079C352.956 147.552 352.126 148.168 349.343 146.876C346.735 145.667 344.411 143.688 342.576 141.113C342.339 140.779 339.687 136.907 340.404 135.524C340.693 134.956 341.463 134.982 342.576 135.181H342.622C342.486 135.246 342.37 135.362 342.29 135.511C341.583 136.894 344.225 140.766 344.462 141.1C346.298 143.675 348.624 145.655 351.232 146.863C354.012 148.164 354.845 147.539 356.085 149.066C357.236 150.484 357.321 151.98 358.13 155.171C358.19 155.383 358.181 155.615 358.104 155.819C358.028 156.023 357.89 156.182 357.72 156.264Z" fill="#C36A58"/>
<path d="M180.741 215.492C179.879 216.112 179.042 216.793 178.223 217.491C173.137 221.827 168.482 226.94 162.887 230.352C152.652 236.609 141.803 234.897 133.425 225.292C129.893 221.251 124.105 215.193 124.09 208.78C124.09 205.098 125.599 200.975 128.226 199.019C132.779 195.654 138.211 199.847 141.591 203.988C145.034 208.199 148.792 212.661 153.818 213.415C159.416 214.282 165.028 211.867 170.114 209.261C172.609 207.983 175.082 206.623 177.53 205.181C177.256 207.095 177.41 209.065 177.976 210.881C178.541 212.696 179.497 214.29 180.741 215.492Z" fill="#FEFEFE"/>
<path d="M149.12 361.163C148.414 361.473 147.661 361.589 146.915 361.505C146.168 361.42 145.445 361.136 144.797 360.673C143.318 359.567 142.424 357.581 141.848 355.573C140.559 351.064 140.584 346.194 140.676 341.398C141.336 341.42 141.993 341.42 142.643 341.398C142.558 346.081 142.565 350.825 143.823 355.226C144.398 357.234 145.292 359.22 146.772 360.326C147.481 360.854 148.291 361.143 149.12 361.163Z" fill="#C36A58"/>
<path d="M155.269 338.341C155.227 339.72 155.206 341.099 155.213 342.478C155.213 347.048 155.52 351.844 153.917 355.972C153.436 357.188 152.762 358.274 151.936 359.168C151.109 360.061 150.146 360.744 149.103 361.176C148.273 361.154 147.463 360.864 146.754 360.334C145.274 359.229 144.381 357.243 143.805 355.235C142.548 350.834 142.541 346.09 142.625 341.407C144.217 341.358 145.804 341.164 147.372 340.826C150.136 340.249 152.81 339.143 155.294 337.548C155.284 337.803 155.276 338.077 155.269 338.341Z" fill="#F2A881"/>
<path d="M144.826 339.911C144.826 340.344 144.808 340.778 144.798 341.212C143.422 341.372 142.039 341.427 140.658 341.377L140.69 339.889C140.884 330.35 140.768 320.619 139.514 311.214C138.785 305.454 137.521 299.815 135.749 294.407C132.924 285.912 128.615 278.155 126.566 269.326C125.387 264.274 125.012 258.659 126.835 253.902C126.912 253.707 126.99 253.512 127.075 253.321C128.777 249.419 131.91 246.639 135.406 245.139C137.854 244.077 140.453 243.647 143.042 243.877C143.272 243.899 143.501 243.929 143.72 243.959C142.296 244.162 140.895 244.558 139.542 245.139C136.046 246.639 132.913 249.401 131.211 253.321C131.126 253.512 131.048 253.707 130.97 253.902C129.148 258.672 129.522 264.274 130.702 269.326C132.761 278.155 137.059 285.912 139.885 294.407C141.657 299.815 142.92 305.454 143.65 311.214C144.903 320.641 145.02 330.354 144.826 339.911Z" fill="#1E0D2D"/>
<path d="M154.987 268.021C154.482 268.927 153.927 269.89 153.337 270.896C151.522 273.979 151.003 274.586 149.417 277.4C147.008 281.662 145.606 284.151 144.716 287.265C143.445 291.714 143.823 295.365 143.932 297.849C144.07 301.341 143.832 304.84 143.226 308.256C142.488 303.521 141.374 298.887 139.899 294.419C137.073 285.925 132.765 278.167 130.716 269.339C129.537 264.287 129.162 258.672 130.985 253.915C131.062 253.72 131.14 253.525 131.225 253.334C132.927 249.431 136.06 246.652 139.556 245.151C140.903 244.575 142.297 244.182 143.713 243.981C150.862 245.03 153.465 251.179 154.227 259.63C154.478 262.427 154.736 265.228 154.987 268.021Z" fill="#1E0D2D"/>
<path d="M155.294 337.535C152.029 339.609 148.461 340.866 144.797 341.233C144.797 340.8 144.797 340.366 144.826 339.933C145.02 330.393 144.903 320.662 143.65 311.257C143.519 310.264 143.374 309.271 143.212 308.287C143.818 304.871 144.056 301.372 143.918 297.88C143.809 295.395 143.431 291.744 144.702 287.295C145.592 284.182 146.994 281.693 149.403 277.43C150.989 274.625 151.522 274.018 153.323 270.926C153.917 269.92 154.468 268.958 154.973 268.051C155.979 279.221 156.912 290.413 157.215 301.648C157.561 313.746 155.707 325.61 155.294 337.535Z" fill="#342647"/>
<path d="M123.995 361.852C123.22 362.195 122.387 362.295 121.572 362.143C119.015 361.579 117.631 358.106 117.224 354.957C116.599 350.136 117.299 345.214 118.04 340.414C118.415 337.981 118.775 335.583 119.1 333.207C119.681 333.641 120.27 334.055 120.866 334.452C120.597 336.302 120.317 338.172 120.025 340.063C119.284 344.863 118.584 349.784 119.209 354.606C119.616 357.754 121 361.228 123.557 361.791C123.702 361.824 123.848 361.844 123.995 361.852Z" fill="#C36A58"/>
<path d="M133.284 340.271C132.672 343.315 132.071 346.372 131.483 349.442C130.508 354.481 128.364 359.706 124.454 361.648C124.302 361.722 124.15 361.791 123.995 361.852C123.845 361.845 123.695 361.825 123.547 361.791C120.989 361.228 119.605 357.754 119.199 354.606C118.574 349.784 119.273 344.863 120.015 340.063C120.304 338.172 120.584 336.302 120.855 334.452C124.748 337.117 128.934 339.077 133.284 340.271Z" fill="#F2A881"/>
<path d="M121.819 335.089C120.908 334.511 120.003 333.884 119.104 333.207C121.184 318.121 122.106 303.959 119.305 288.457C117.218 276.889 116.158 277.27 115.42 270.614C114.646 263.572 113.88 256.595 117.638 250.858C117.998 250.309 118.389 249.79 118.807 249.306C116.981 254.8 117.592 261.053 118.206 267.353C118.913 274.599 119.944 274.183 121.964 286.775C124.659 303.513 123.804 318.82 121.819 335.089Z" fill="#342647"/>
<path d="M143.162 264.435C142.601 269.265 142.456 274.152 142.382 279.026C142.191 290.352 141.746 300.495 139.514 311.236C139.351 312.029 139.161 312.831 138.991 313.634C136.936 322.527 135.064 331.364 133.284 340.271C129.292 339.177 125.436 337.434 121.819 335.089C123.804 318.82 124.645 303.513 121.968 286.775C119.948 274.2 118.923 274.599 118.21 267.353C117.595 261.053 116.984 254.8 118.81 249.306C122.455 245.03 127.22 244.263 127.901 244.168C130.429 243.826 132.986 244.165 135.396 245.16C139.203 246.709 142.382 249.731 143.696 253.399C144.956 256.903 143.575 260.892 143.162 264.435Z" fill="#564370"/>
<path d="M129.646 206.581C128.48 199.643 132.793 193.572 137.02 190.181C140.273 187.58 143.932 186.4 147.347 184.341C151.246 181.923 155 179.17 158.582 176.102C161.496 173.665 165.077 169.021 168.849 169.84C169.411 169.966 172.028 170.534 172.95 172.975C173.416 174.211 173.366 175.716 173.334 176.765C173.297 177.945 173.125 179.113 172.822 180.234C172.116 182.558 170.248 183.638 168.701 184.874C166.817 186.409 165.039 188.132 163.385 190.025C159.689 194.185 156.538 199.02 154.044 204.361C152.525 207.604 151.201 211.117 148.976 213.597C143.272 219.928 131.377 216.884 129.646 206.581Z" fill="#EBE9EA"/>
<path d="M133.534 197.276C133.065 197.329 132.592 197.329 132.122 197.276C130.169 197.037 127.361 195.875 126.609 193.638C125.764 191.136 128.251 189.588 130.19 184.965C131.309 182.294 131.878 179.327 131.846 176.323C132.235 176.757 132.634 177.143 133.04 177.533C132.954 180.127 132.402 182.665 131.422 184.965C129.483 189.596 126.997 191.144 127.841 193.638C128.593 195.875 131.401 197.037 133.354 197.276H133.534Z" fill="#C36A58"/>
<path d="M143.823 193.43C143.335 193.474 142.845 193.474 142.357 193.43C142.035 193.399 141.686 193.352 141.297 193.291C140.323 194.045 139.348 194.648 138.73 195.025L138.482 195.181C137.776 195.615 137.091 196.049 136.413 196.378C135.5 196.87 134.528 197.176 133.534 197.284H133.351C131.398 197.046 128.59 195.884 127.838 193.646C126.993 191.144 129.48 189.596 131.419 184.974C132.398 182.674 132.951 180.135 133.036 177.542C133.22 177.724 133.39 177.897 133.598 178.071C133.704 178.166 133.81 178.266 133.919 178.357C134.029 178.448 134.16 178.569 134.273 178.669L134.626 178.973C134.746 179.077 134.869 179.176 134.979 179.268L135.35 179.554C135.601 179.745 135.851 179.922 136.099 180.096C136.197 180.165 136.296 180.235 136.399 180.3C136.678 180.486 136.96 180.659 137.239 180.824L137.508 180.98C138.076 181.301 138.66 181.579 139.256 181.813L139.546 181.926L139.952 182.064C140.28 182.173 140.609 182.264 140.934 182.333C140.974 183.293 141.252 184.215 141.732 184.974C142.851 186.778 144.282 186.756 144.487 188.335C144.691 189.913 147.125 193.1 143.823 193.43Z" fill="#F2A881"/>
<path d="M140.962 182.298C140.637 182.229 140.309 182.138 139.98 182.029C140.051 181.119 140.206 180.13 140.245 178.821C140.347 175.3 140.362 174.385 140.164 173.119C139.997 172.032 139.718 170.975 139.334 169.975C140.478 170.322 141.471 170.937 142.039 171.779C143.847 174.458 140.778 178.504 140.962 182.298Z" fill="#C36A58"/>
<path d="M140.245 178.821C140.206 180.122 140.051 181.119 139.98 182.03C137.123 181.11 134.269 178.903 131.857 176.297C131.903 174.021 131.857 172.325 132.987 171.12C133.148 170.947 133.322 170.793 133.506 170.66C134.863 169.667 136.904 169.429 138.702 169.793C138.921 169.836 139.136 169.893 139.348 169.958C139.732 170.958 140.011 172.015 140.178 173.101C140.362 174.385 140.347 175.3 140.245 178.821Z" fill="#F2A881"/>
<path d="M140.955 181.939C140.955 182.06 140.955 182.177 140.955 182.299C140.63 182.229 140.302 182.138 139.973 182.03L139.567 181.891L139.277 181.778C138.682 181.544 138.098 181.266 137.529 180.946L137.261 180.79C136.982 180.625 136.699 180.451 136.42 180.265L136.12 180.061C135.873 179.888 135.622 179.71 135.371 179.519L135 179.233L134.647 178.938L134.294 178.634L133.941 178.322C133.831 178.231 133.725 178.131 133.619 178.036C133.429 177.863 133.241 177.689 133.058 177.507C132.652 177.117 132.253 176.709 131.864 176.297C131.864 176.115 131.864 175.942 131.864 175.768C131.899 173.756 131.945 172.23 132.984 171.12C133.144 170.947 133.318 170.793 133.503 170.66C134.859 169.667 136.9 169.429 138.698 169.793C138.917 169.836 139.133 169.893 139.344 169.958C140.489 170.305 141.481 170.92 142.05 171.762C142.06 171.776 142.07 171.792 142.078 171.809C143.756 174.42 140.966 178.283 140.955 181.939Z" fill="#F2A881"/>
<path d="M128 168.752C129.01 171.301 130.308 173.663 131.853 175.768C131.853 175.942 131.853 176.115 131.853 176.297C129.162 173.409 126.997 170.031 125.934 167.378C122.999 160.054 124.016 148.151 130.709 143.884C131.783 143.203 132.94 142.741 134.135 142.518C133.67 142.735 133.219 142.995 132.786 143.294C126.082 147.917 125.065 160.817 128 168.752Z" fill="#C36A58"/>
<path d="M147.602 178.981C146.878 180.177 146.012 181.234 145.034 182.116C144.457 182.311 143.865 182.431 143.268 182.472H143.088C142.378 182.501 141.668 182.439 140.969 182.285C140.785 178.526 143.819 174.48 142.074 171.813C142.066 171.797 142.057 171.781 142.046 171.766C141.478 170.925 140.485 170.309 139.341 169.962C139.129 169.897 138.913 169.84 138.695 169.797C136.897 169.416 134.855 169.654 133.499 170.664C133.315 170.797 133.141 170.951 132.98 171.124C131.942 172.234 131.896 173.76 131.86 175.772C130.315 173.667 129.018 171.305 128.007 168.756C125.072 160.821 126.089 147.943 132.782 143.299C133.216 142.999 133.667 142.74 134.131 142.522C134.333 142.479 134.538 142.444 134.746 142.414C136.488 142.155 138.246 142.091 139.998 142.223C142.47 143.186 145.182 144.894 147.09 147.964C147.54 148.657 147.957 149.381 148.34 150.132C149.144 151.651 149.54 153.44 149.474 155.249C149.332 157.968 148.061 159.026 148.414 162.148C148.471 162.651 148.746 163.922 149.29 166.484C149.717 168.462 149.919 169.281 149.996 169.645C150.816 173.656 147.958 178.391 147.602 178.981Z" fill="#F2A881"/>
<path d="M151.801 265.285C151.305 265.422 150.801 265.513 150.293 265.558C146.189 265.965 141.76 264.504 137.706 263.862C120.636 261.161 117.804 263.121 115.37 259.071C114.102 256.963 113.982 254.951 115.06 236.718C115.837 223.588 116.225 217.023 116.61 214.768C118.606 203.112 122.967 190.971 126.898 187.45C125.606 190.201 124.427 193.03 123.366 195.927C122.558 198.118 121.841 200.359 121.219 202.639C120.143 206.465 119.42 210.427 119.065 214.451C118.849 217.096 119.065 216.988 119.397 226.879C119.725 236.418 119.58 237.719 120.555 240.117C121.89 243.421 122.854 242.719 125.369 247.25C128.615 253.083 127.523 255.155 130.013 257.657C132.175 259.825 134.82 260.068 139.305 260.506C143.47 260.914 144.533 260.107 146.938 261.118C148.829 261.957 150.507 263.395 151.801 265.285Z" fill="#EBE9EA"/>
<path d="M151.801 265.285C150.505 263.386 148.822 261.942 146.924 261.1C144.518 260.09 143.455 260.897 139.291 260.489C134.806 260.055 132.161 259.795 129.999 257.64C127.509 255.155 128.586 253.083 125.355 247.233C122.84 242.715 121.876 243.404 120.541 240.1C119.566 237.681 119.711 236.393 119.383 226.862C119.029 216.971 118.835 217.079 119.051 214.434C119.406 210.41 120.129 206.448 121.205 202.622C121.83 200.337 122.551 198.092 123.363 195.897C124.424 193 125.602 190.171 126.895 187.42C127.735 186.665 128.555 186.301 129.328 186.409C131.03 186.652 131.355 189.011 135.223 190.802C136.787 191.517 139.436 192.736 141.117 191.201C143.014 189.466 142.149 185.598 143.293 185.208C148.379 183.534 148.467 204.201 148.658 206.837C149.869 223.618 152.281 240.291 154.199 256.959C154.771 261.794 154.891 264.405 151.801 265.285Z" fill="#FEFEFE"/>
<path d="M194.222 208.376C191.93 212.63 188.073 211.962 184.421 213.406C183.135 213.933 181.901 214.632 180.741 215.492C179.597 214.387 178.694 212.95 178.115 211.311C177.535 209.671 177.297 207.88 177.421 206.1C177.538 207.553 177.893 208.963 178.463 210.245C179.033 211.527 179.808 212.655 180.741 213.562C181.9 212.702 183.135 212.004 184.421 211.481C188.073 210.033 191.93 210.7 194.222 206.447C194.656 205.631 195.67 203.45 195.988 201.568C196.528 203.507 194.826 207.253 194.222 208.376Z" fill="#C36A58"/>
<path d="M296.632 140.161L156.803 164.439C154.594 164.822 153.057 167.332 153.369 170.044L157.016 201.708C157.329 204.42 159.373 206.308 161.582 205.925L301.41 181.647C303.619 181.264 305.157 178.754 304.845 176.042L301.198 144.378C300.885 141.666 298.841 139.778 296.632 140.161Z" fill="white"/>
<path d="M174.225 192.45L167.56 198.316L167.821 188.252L161.213 182.286L169.093 179.476L171.675 169.919L176.284 178.249L184.485 178.314L179.455 186.266L181.942 195.862L174.225 192.45Z" fill="#FFA634"/>
<path d="M201.49 187.792L194.826 193.664L195.087 183.599L188.482 177.628L196.358 174.823L198.94 165.266L203.549 173.596L211.75 173.656L206.721 181.613L209.207 191.209L201.49 187.792Z" fill="#FFA634"/>
<path d="M229.12 183.079L222.455 188.946L222.716 178.882L216.112 172.915L223.988 170.109L226.57 160.548L231.179 168.878L239.38 168.943L234.35 176.896L236.837 186.492L229.12 183.079Z" fill="#FFA634"/>
<path d="M256.749 178.361L250.084 184.233L250.346 174.168L243.741 168.197L251.617 165.392L254.199 155.835L258.808 164.165L267.009 164.225L261.98 172.182L264.466 181.778L256.749 178.361Z" fill="#FFA634"/>
<path d="M284.707 173.591L278.039 179.458L278.3 169.394L271.696 163.427L279.572 160.622L282.153 151.06L286.762 159.39L294.963 159.455L289.934 167.408L292.42 177.004L284.707 173.591Z" fill="#FFA634"/>
<path d="M195.995 201.569C195.67 203.45 194.656 205.632 194.229 206.447C191.937 210.701 188.08 210.033 184.428 211.481C183.142 212.004 181.908 212.702 180.748 213.562C179.815 212.656 179.04 211.528 178.47 210.246C177.9 208.963 177.545 207.554 177.428 206.1C177.453 205.796 177.484 205.488 177.53 205.181C181.865 202.631 186.095 199.838 190.22 196.803L190.792 196.369C190.559 197.332 190.323 198.295 190.086 199.257C189.955 199.786 189.828 200.315 189.698 200.844C190.351 201.651 191.463 201.469 192.318 201.092C193.173 200.714 194.105 200.181 195.006 200.467C195.235 200.527 195.448 200.661 195.621 200.854C195.795 201.048 195.924 201.294 195.995 201.569Z" fill="#F2A881"/>
<path d="M194.207 164.542C193.95 164.729 193.664 164.848 193.367 164.893C192.544 165.006 191.718 164.255 190.061 162.755C188.232 161.099 187.317 160.27 187.451 159.551C187.539 159.117 187.967 158.961 188.691 158.831C188.59 158.916 188.52 159.044 188.493 159.191C188.359 159.906 189.274 160.734 191.103 162.391C192.622 163.761 193.448 164.52 194.207 164.542Z" fill="#C36A58"/>
<path d="M196.5 159.98C196.337 160.639 195.642 163.506 194.208 164.542C193.448 164.542 192.622 163.774 191.103 162.374C189.274 160.717 188.359 159.889 188.493 159.174C188.52 159.027 188.59 158.899 188.691 158.814C189.978 158.65 191.25 158.334 192.488 157.868C192.841 157.734 193.194 157.582 193.547 157.4C194.822 156.767 195.617 156.143 196.161 156.182C196.288 156.187 196.411 156.238 196.514 156.329C197.22 157.001 196.669 159.269 196.5 159.98Z" fill="#F2A881"/>
</g>
<defs>
<clipPath id="clip0">
<rect width="456" height="391" fill="white"/>
</clipPath>
</defs>
</svg>
