<svg width="42" height="43" viewBox="0 0 42 43" fill="none" xmlns="http://www.w3.org/2000/svg">
<path d="M21.4299 41.2844C17.4786 41.4678 13.5869 40.4744 10.2472 38.4298C6.90739 36.3853 4.26949 33.3815 2.66704 29.7983C1.06459 26.215 0.569565 22.2133 1.24455 18.2991C1.91953 14.3849 3.73421 10.734 6.45912 7.8082C9.18403 4.88237 12.6968 2.81298 16.5532 1.8617C20.4095 0.910416 24.4363 1.11997 28.1243 2.46388C31.8123 3.80778 34.9959 6.22568 37.2725 9.4118C39.549 12.5979 40.8163 16.4092 40.9141 20.3636C41.0392 25.6647 39.058 30.8445 35.4053 34.7666C31.7526 38.6887 26.7266 41.0327 21.4299 41.2844ZM20.4712 2.50842C16.7593 2.68065 13.158 3.95055 10.1227 6.15756C7.08742 8.36457 4.75445 11.4096 3.41882 14.9074C2.08319 18.4053 1.80489 22.199 2.61912 25.8088C3.43335 29.4186 5.30355 32.6823 7.9932 35.1873C10.6828 37.6922 14.0712 39.3259 17.7297 39.8817C21.3882 40.4375 25.1525 39.8904 28.5467 38.3097C31.9409 36.7291 34.8125 34.1857 36.7984 31.0013C38.7842 27.8169 39.7951 24.1345 39.7033 20.4198C39.5745 15.4404 37.4774 10.7582 33.8719 7.40036C30.2665 4.0425 25.4471 2.2832 20.4712 2.50842Z" fill="#EFEEEE"/>
<path d="M21.5029 9C18.6319 9.00021 15.8485 9.98798 13.6201 11.7974C11.3918 13.6068 9.85417 16.1276 9.2656 18.9365C8.67703 21.7453 9.07336 24.6711 10.388 27.2223C11.7026 29.7736 13.8555 31.7949 16.485 32.9468C16.4325 31.9854 16.5057 31.0214 16.7027 30.079C16.9427 29.0635 18.3102 23.2665 18.3102 23.2665C18.0371 22.6442 17.9001 21.9709 17.9083 21.2914C17.9083 19.4391 18.98 18.0554 20.3196 18.0554C20.5585 18.0517 20.7954 18.0993 21.0144 18.1949C21.2333 18.2904 21.4293 18.4318 21.589 18.6094C21.7487 18.787 21.8685 18.9968 21.9403 19.2246C22.0121 19.4524 22.0342 19.693 22.0052 19.93C22.0052 21.0738 21.274 22.7811 20.9 24.3657C20.8255 24.6592 20.8211 24.9662 20.8871 25.2617C20.9531 25.5573 21.0876 25.8332 21.2799 26.0673C21.4722 26.3013 21.7169 26.4869 21.9941 26.609C22.2713 26.7311 22.5734 26.7864 22.8759 26.7704C25.2425 26.7704 26.8388 23.7296 26.8388 20.1253C26.8388 17.3859 24.9913 15.3382 21.6368 15.3382C20.834 15.3067 20.0332 15.4387 19.283 15.7263C18.5329 16.0138 17.8491 16.4509 17.2732 17.0108C16.6973 17.5708 16.2414 18.2421 15.9332 18.9837C15.625 19.7253 15.4709 20.5219 15.4803 21.3249C15.4431 22.2154 15.7374 23.0881 16.3064 23.7743C16.4062 23.8566 16.4773 23.9686 16.5094 24.0939C16.5415 24.2192 16.5329 24.3515 16.485 24.4717C16.4236 24.7005 16.2896 25.2528 16.2282 25.476C16.2175 25.5435 16.1909 25.6074 16.1505 25.6626C16.1101 25.7177 16.0571 25.7624 15.996 25.7929C15.9349 25.8235 15.8673 25.839 15.799 25.8383C15.7307 25.8375 15.6635 25.8204 15.6031 25.7885C13.856 25.0743 13.0411 23.1661 13.0411 21.0125C13.0411 17.464 16.0384 13.2069 21.9772 13.2069C26.7495 13.2069 29.8919 16.6605 29.8919 20.3653C29.8919 25.2695 27.1625 28.9296 23.1438 28.9296C22.5454 28.9454 21.9526 28.8112 21.4193 28.5393C20.886 28.2674 20.4293 27.8665 20.0907 27.373C20.0907 27.373 19.3651 30.2519 19.2088 30.8099C18.9201 31.7579 18.4972 32.6598 17.9529 33.488C19.6725 33.9957 21.4813 34.1278 23.2565 33.8754C25.0317 33.6229 26.7318 32.9918 28.2415 32.0248C29.7513 31.0578 31.0353 29.7776 32.0066 28.271C32.9778 26.7643 33.6136 25.0665 33.8707 23.2926C34.1279 21.5188 34.0004 19.7104 33.4969 17.9901C32.9934 16.2699 32.1257 14.678 30.9527 13.3224C29.7797 11.9668 28.3287 10.8792 26.6982 10.1334C25.0677 9.38766 23.2959 9.00112 21.5028 9.00002L21.5029 9Z" fill="#EFEEEE"/>
</svg>
